<?xml version="1.0" encoding="utf-8"?>
<!-- Generator: Adobe Illustrator 16.0.0, SVG Export Plug-In . SVG Version: 6.00 Build 0)  -->
<!DOCTYPE svg PUBLIC "-//W3C//DTD SVG 1.1//EN" "http://www.w3.org/Graphics/SVG/1.1/DTD/svg11.dtd">
<svg version="1.1" id="Layer_1" xmlns="http://www.w3.org/2000/svg" xmlns:xlink="http://www.w3.org/1999/xlink" x="0px" y="0px"
	 width="453.54px" height="176.69px" viewBox="0 0 453.54 176.69" enable-background="new 0 0 453.54 176.69" xml:space="preserve">
<g>
	<linearGradient id="SVGID_1_" gradientUnits="userSpaceOnUse" x1="43.4731" y1="170.8765" x2="43.4731" y2="47.9668">
		<stop  offset="0.4778" style="stop-color:#F9D8B5"/>
		<stop  offset="0.5542" style="stop-color:#FAD4AB"/>
		<stop  offset="0.6821" style="stop-color:#FBC891"/>
		<stop  offset="0.845" style="stop-color:#FEB568"/>
		<stop  offset="0.9261" style="stop-color:#FFAB50"/>
	</linearGradient>
	<path fill="url(#SVGID_1_)" d="M75.978,131.256c-9.396,22.094-25.648,35.052-39.871,35.052c-15.487,0-24.884-15.497-24.884-37.082
		c0-1.01,0.255-6.088,0.255-7.361c23.614-3.303,42.914-11.43,52.819-19.301c5.078-3.813,9.141-8.125,12.439-12.442
		c6.352-9.142,7.876-14.983,7.876-20.062c0-15.492-9.65-22.094-23.109-22.094c-18.285,0-34.792,12.698-44.188,29.206
		C7.921,93.678,2.333,112.474,2.333,126.688c0,12.193,2.543,22.604,7.621,31.239c5.333,8.627,13.204,12.949,23.614,12.949
		c8.636,0,17.017-3.813,25.143-11.175c8.381-7.361,14.728-16.507,19.3-27.172L75.978,131.256z M29,72.09
		c9.649-13.964,20.06-20.82,31.234-20.82c10.92,0,16.502,6.347,16.502,18.791c0,7.112-3.298,15.237-11.679,25.393
		c-8.38,10.16-27.426,19.305-52.819,23.109C14.017,101.3,19.604,85.803,29,72.09z"/>
	<linearGradient id="SVGID_2_" gradientUnits="userSpaceOnUse" x1="130.8198" y1="170.8765" x2="130.8198" y2="47.9668">
		<stop  offset="0.4778" style="stop-color:#F9D8B5"/>
		<stop  offset="0.5542" style="stop-color:#FAD4AB"/>
		<stop  offset="0.6821" style="stop-color:#FBC891"/>
		<stop  offset="0.845" style="stop-color:#FEB568"/>
		<stop  offset="0.9261" style="stop-color:#FFAB50"/>
	</linearGradient>
	<path fill="url(#SVGID_2_)" d="M150.882,165.543c-3.557,0-5.841-3.303-6.856-9.654l-8.886-51.296
		c17.267-35.293,30.725-53.069,40.121-53.069c3.808,0,7.362,2.284,7.616,4.568c-1.524-0.505-2.539-0.76-3.048-0.76
		c-3.298,0-6.852,2.794-6.852,7.617c0,5.333,1.775,8.126,5.583,8.126c5.842,0,8.891-3.554,8.891-10.919
		c-0.765-10.92-9.651-12.189-11.43-11.68c-12.949,0-25.138,18.281-42.154,51.04l-3.809-21.839
		c-3.808-21.584-6.092-29.71-14.473-29.71c-11.175,0-19.301,13.713-29.456,38.855l2.539,1.52
		c9.396-23.614,17.267-35.293,23.109-35.293c3.299,0,5.587,3.299,6.856,10.155l8.126,46.477
		c-19.556,37.828-31.745,57.893-40.885,57.893c-4.828,0-7.366-1.773-7.872-5.587c1.015,0.51,2.03,0.765,2.794,0.765
		c3.808,0,7.107-2.794,7.107-7.881c0-3.804-2.794-7.099-6.092-7.099c-5.078,0-7.621,3.04-7.621,9.392
		c0,8.637,3.812,12.949,11.684,12.949c11.175,0,23.614-18.791,42.155-55.107l3.553,22.348c0.764,5.333,1.524,9.4,2.034,11.94
		c0.505,2.538,1.27,5.842,2.539,10.154c2.284,8.126,5.587,11.43,10.665,11.43c11.424,0,19.55-13.714,29.71-38.855l-2.284-1.52
		C164.595,153.859,156.724,165.543,150.882,165.543z"/>
	<linearGradient id="SVGID_3_" gradientUnits="userSpaceOnUse" x1="221.46" y1="170.8765" x2="221.46" y2="47.9668">
		<stop  offset="0.4778" style="stop-color:#F9D8B5"/>
		<stop  offset="0.5542" style="stop-color:#FAD4AB"/>
		<stop  offset="0.6821" style="stop-color:#FBC891"/>
		<stop  offset="0.845" style="stop-color:#FEB568"/>
		<stop  offset="0.9261" style="stop-color:#FFAB50"/>
	</linearGradient>
	<path fill="url(#SVGID_3_)" d="M233.653,47.966c-15.492,0-28.699,7.871-39.619,23.873c-10.92,15.997-16.252,34.274-16.252,55.104
		c0,26.153,11.43,43.934,31.49,43.934c10.665,0,20.315-4.059,29.206-12.44c8.89-8.381,15.487-18.545,19.809-30.22
		c4.568-11.684,6.853-23.368,6.853-34.792C265.138,66.252,254.219,47.966,233.653,47.966z M234.918,154.37
		c-7.361,8.881-15.997,13.203-25.393,13.203c-15.238,0-22.854-14.723-22.854-43.933c0-17.526,4.823-33.773,14.219-49.262
		c9.395-15.492,20.314-23.108,32.253-23.108c15.233,0,22.849,14.982,22.849,39.616C255.993,111.964,249.905,136.333,234.918,154.37z
		"/>
	<linearGradient id="SVGID_4_" gradientUnits="userSpaceOnUse" x1="299.6587" y1="171.0747" x2="299.6587" y2="6.3457">
		<stop  offset="0.4778" style="stop-color:#F9D8B5"/>
		<stop  offset="0.5542" style="stop-color:#FAD4AB"/>
		<stop  offset="0.6821" style="stop-color:#FBC891"/>
		<stop  offset="0.845" style="stop-color:#FEB568"/>
		<stop  offset="0.9261" style="stop-color:#FFAB50"/>
	</linearGradient>
	<path fill="url(#SVGID_4_)" d="M286.197,166.504c-7.107,0-10.665-4.165-10.665-12.292c0-5.332,1.019-11.472,3.048-18.833
		l21.075-80.034h31.749l1.265-4h-31.74l12.185-45h-2.784c-3.813,11-7.88,22.88-12.703,35.578c-2.794,6.348-7.106,9.422-12.694,9.422
		h-9.145l-1.266,4h16.507l-21.338,79.985c-2.029,7.871-3.04,14.465-3.04,19.807c0,10.409,4.822,15.938,14.724,15.938
		c14.477,0,25.906-14.729,34.287-42.729h-3.049C306.261,151.345,295.596,166.504,286.197,166.504z"/>
	<linearGradient id="SVGID_5_" gradientUnits="userSpaceOnUse" x1="366.438" y1="25.3667" x2="366.438" y2="6.8306">
		<stop  offset="0.0493" style="stop-color:#F9D8B5"/>
		<stop  offset="0.1348" style="stop-color:#F9D3AB"/>
		<stop  offset="0.2783" style="stop-color:#F9C791"/>
		<stop  offset="0.4621" style="stop-color:#F8B267"/>
		<stop  offset="0.6767" style="stop-color:#F7962D"/>
		<stop  offset="0.8276" style="stop-color:#F78000"/>
	</linearGradient>
	<path fill="url(#SVGID_5_)" d="M366.183,25.367c11.43,0,10.664-18.536,0.764-18.536c-5.077,0-8.634,4.568-8.634,9.65
		C358.313,21.304,361.87,25.367,366.183,25.367z"/>
	<linearGradient id="SVGID_6_" gradientUnits="userSpaceOnUse" x1="385.3521" y1="170.8765" x2="385.3521" y2="47.9668">
		<stop  offset="0.4778" style="stop-color:#F9D8B5"/>
		<stop  offset="0.5542" style="stop-color:#FAD4AB"/>
		<stop  offset="0.6821" style="stop-color:#FBC891"/>
		<stop  offset="0.845" style="stop-color:#FEB568"/>
		<stop  offset="0.9261" style="stop-color:#FFAB50"/>
	</linearGradient>
	<path fill="url(#SVGID_6_)" d="M443.122,72.599c-4.832,0-7.88,4.573-7.88,9.65c0,5.078,2.038,7.618,6.097,7.618
		c7.871,0,11.429-10.156,11.429-19.046c0-14.983-10.665-22.854-24.633-22.854c-10.919,0-20.82,4.317-29.71,12.698
		c-8.891,8.381-15.488,18.282-19.811,30.221c-4.313,11.679-6.343,23.364-6.343,35.048c0,1.689,0.064,3.346,0.181,4.977l-0.681-0.408
		c-8.892,20.31-19.046,35.543-26.153,35.543c-4.067,0-6.096-2.53-6.096-7.362c0-7.361,2.028-18.026,6.096-31.994l8.627-30.729
		c4.831-17.517,7.115-29.707,7.115-36.053c0-7.875-3.558-11.939-10.665-11.939c-11.429,0-21.585,14.728-32.759,38.855l2.539,1.52
		c8.891-20.311,19.047-35.548,26.152-35.548c3.813,0,5.842,2.539,5.842,7.362c0,7.111-2.028,18.031-6.097,32.504l-8.881,32.254
		c-4.577,16.498-6.86,27.672-6.86,34.024c0,7.88,3.558,11.938,10.919,11.938c10.94,0,20.714-13.506,31.33-35.816
		c1.154,8.443,3.945,16.016,8.272,22.604c6.097,8.89,14.478,13.212,24.888,13.212c17.017,0,31.748-16.007,40.12-38.347l-2.029-1.273
		c-9.9,23.613-21.584,35.298-35.553,35.298c-15.996,0-26.916-16.762-26.916-39.866c0-21.075,4.576-39.106,13.968-53.579
		c9.399-14.478,20.32-21.839,32.759-21.839c11.429,0,20.32,6.347,20.32,19.551c0,1.27-0.256,2.289-0.511,3.303
		C446.925,73.109,445.151,72.599,443.122,72.599z"/>
</g>
</svg>
