<?xml version="1.0" encoding="utf-8"?>
<!-- Generator: Adobe Illustrator 16.0.0, SVG Export Plug-In . SVG Version: 6.00 Build 0)  -->
<!DOCTYPE svg PUBLIC "-//W3C//DTD SVG 1.1//EN" "http://www.w3.org/Graphics/SVG/1.1/DTD/svg11.dtd">
<svg version="1.1" id="Layer_1" xmlns="http://www.w3.org/2000/svg" xmlns:xlink="http://www.w3.org/1999/xlink" x="0px" y="0px"
	 width="1087.455px" height="589.469px" viewBox="0 0 1087.455 589.469" enable-background="new 0 0 1087.455 589.469"
	 xml:space="preserve">
<g id="Layer_2">
	<g>
		
			<linearGradient id="SVGID_1_" gradientUnits="userSpaceOnUse" x1="-432.8467" y1="413.3247" x2="-432.8467" y2="710.1978" gradientTransform="matrix(1 0 0 -1 539.04 832.8096)">
			<stop  offset="0" style="stop-color:#D46400"/>
			<stop  offset="0.0443" style="stop-color:#FFF2BF"/>
			<stop  offset="0.1182" style="stop-color:#FFDC7F"/>
			<stop  offset="0.2759" style="stop-color:#FFD66A"/>
			<stop  offset="0.5813" style="stop-color:#FFA72A"/>
			<stop  offset="0.9064" style="stop-color:#FF3800"/>
			<stop  offset="0.9852" style="stop-color:#FFD26A"/>
		</linearGradient>
		<path fill="url(#SVGID_1_)" d="M191.349,324.942l-9.122-5.701l-1.145,2.691c-20.782,48.865-57.905,81.697-92.377,81.697
			c-16.888,0-31.152-8.184-41.25-23.664c-10.041-15.396-15.348-36.795-15.348-61.879c0-1.076,0.131-4.289,0.27-7.688l0.004-0.111
			c0.111-2.713,0.226-5.506,0.286-7.514c60.076-8.733,103.676-29.472,124.477-46.007c11.002-8.252,21.122-18.375,30.102-30.124
			c13.417-19.319,19.141-33.993,19.141-49.066c0-18.33-5.486-32.43-16.306-41.908c-9.891-8.664-23.709-13.057-41.071-13.057
			c-41.269,0-82.308,27.057-107.102,70.613C19.759,232.135,6,277.668,6,312.055c0,29.266,6.208,54.656,18.464,75.488
			c13.091,21.195,32.676,31.941,58.21,31.941c20.826,0,41.471-9.141,61.352-27.156c19.631-17.252,35.269-39.262,46.479-65.418
			L191.349,324.942z M145.994,135.453c24.351,0,36.698,14.173,36.698,42.125c0,17.349-8.887,36.554-27.168,58.713
			c-20.438,24.772-65.485,44.73-120.665,53.5c4.518-39.126,17.643-74.771,39.018-105.968
			C96.052,151.727,120.316,135.453,145.994,135.453z"/>
		
			<linearGradient id="SVGID_2_" gradientUnits="userSpaceOnUse" x1="-133.1318" y1="413.3247" x2="-133.1319" y2="710.1978" gradientTransform="matrix(1 0 0 -1 539.04 832.8096)">
			<stop  offset="0" style="stop-color:#D46400"/>
			<stop  offset="0.0443" style="stop-color:#FFF2BF"/>
			<stop  offset="0.1182" style="stop-color:#FFDC7F"/>
			<stop  offset="0.2759" style="stop-color:#FFD66A"/>
			<stop  offset="0.5813" style="stop-color:#FFA72A"/>
			<stop  offset="0.9064" style="stop-color:#FF3800"/>
			<stop  offset="0.9852" style="stop-color:#FFD26A"/>
		</linearGradient>
		<path fill="url(#SVGID_2_)" d="M557.876,122.613c-37.626,0-69.972,19.439-96.139,57.776c-26.264,38.479-39.03,81.745-39.03,132.27
			c0,3.197,0.073,6.398,0.217,9.547l-7.309-4.875l-1.163,2.816c-29.354,71.063-45.912,81.674-53.169,81.674
			c-6.957,0-11.605-7.01-13.819-20.844l-20.968-121.015c40.288-82.222,71.467-123.907,92.679-123.907
			c5.096,0,9.696,1.916,12.559,4.218c-0.806-0.143-1.319-0.172-1.704-0.172c-9.232,0-18.782,7.702-18.782,20.591
			c0,18.016,8.574,21.797,15.767,21.797c15.664,0,23.606-9.565,23.606-28.464l-0.005-0.141
			c-1.671-23.957-18.772-30.287-27.581-30.287c-0.898,0-1.691,0.075-2.359,0.222c-31.563,0.278-60.171,42.711-98.6,116.015
			l-7.779-44.601c-9.301-52.706-14.886-72.622-36.835-72.622c-28.612,0-48.866,35.902-72.271,93.829l-0.801,1.981l10.384,6.231
			l1.087-2.733c29.533-74.233,46.591-82.247,52.554-82.247c6.46,0,11.11,7.423,13.82,22.052l19.152,109.527
			c-44.34,85.755-74.021,135.392-94.481,135.392c-8.189,0-12.927-2.117-15.056-6.814c1.058,0.236,2.072,0.357,2.995,0.357
			c9.336,0,19.385-6.633,19.385-21.193c0-10.508-7.773-19.385-16.973-19.385c-13.664,0-20.591,8.348-20.591,24.813
			c0,22.066,10.174,33.254,30.24,33.254c13.853,0,28.313-10.838,45.505-34.104c14.391-19.479,30.885-47.707,53.333-91.305
			l7.234,45.471c1.406,9.848,3.038,19.43,4.848,28.479c1.535,7.678,3.523,15.633,6.075,24.309
			c5.633,20.029,14.187,28.961,27.734,28.961c28.758,0,48.212-33.275,71.688-90.902c2.138,27.031,9.897,49.545,22.55,65.309
			c13.438,16.744,32.15,25.594,54.114,25.594c26.243,0,49.488-9.889,71.063-30.23c21.18-19.969,37.213-44.424,47.65-72.67
			c10.918-27.898,16.454-56.001,16.454-83.527C635.153,163.9,606.265,122.613,557.876,122.613z M500.588,406.647
			c-34.354,0-51.773-34.26-51.773-101.826c0-40.79,10.928-78.633,33.407-115.695c21.604-35.615,46.65-53.673,74.448-53.673
			c33.388,0,51.774,32.522,51.774,91.575c0,56.958-18.034,111.326-49.479,149.166C542.223,396.401,522.581,406.647,500.588,406.647z
			"/>
		
			<linearGradient id="SVGID_3_" gradientUnits="userSpaceOnUse" x1="176.0679" y1="412.9106" x2="176.0679" y2="807.5464" gradientTransform="matrix(1 0 0 -1 539.04 832.8096)">
			<stop  offset="0" style="stop-color:#D46400"/>
			<stop  offset="0.0443" style="stop-color:#FFF2BF"/>
			<stop  offset="0.1182" style="stop-color:#FFDC7F"/>
			<stop  offset="0.2759" style="stop-color:#FFD66A"/>
			<stop  offset="0.5123" style="stop-color:#FFA72A"/>
			<stop  offset="0.6601" style="stop-color:#FF3800"/>
			<stop  offset="0.8374" style="stop-color:#FFD26A"/>
		</linearGradient>
		<path fill="url(#SVGID_3_)" d="M743.468,314.141l-0.461,1.68c-14.546,52.943-38.781,88.516-60.307,88.516
			c-15.36,0-22.827-8.766-22.827-26.799c0-11.623,2.139-24.336,7.153-42.518l49.562-186.626h75.298l4.563-15h-75.503l28.945-107
			h-10.564l-1.186-1.131l-0.512,1.467c-0.728,2.087-1.477,4.074-2.2,5.995c-0.761,2.02-1.548,4.108-2.332,6.365
			c-1.906,5.486-3.826,11.084-5.778,16.773c-6.178,17.998-12.564,36.609-19.77,55.575c-6.319,14.363-15.954,21.956-27.862,21.956
			h-23.555l-4.561,15h39.33l-49.818,185.188c-4.992,19.338-7.316,34.221-7.316,46.838c0,26.195,12.608,39.479,37.477,39.479
			c17.814,0,33.992-8.934,48.086-26.549c14.286-17.857,25.952-42.668,35.659-75.84l1.942-2.115h-12.235L743.468,314.141z"/>
		
			<linearGradient id="SVGID_4_" gradientUnits="userSpaceOnUse" x1="335.5513" y1="759.8677" x2="335.5513" y2="807.8735" gradientTransform="matrix(1 0 0 -1 539.04 832.8096)">
			<stop  offset="0" style="stop-color:#FFD26A"/>
			<stop  offset="0.1182" style="stop-color:#FFDC7F"/>
			<stop  offset="0.2759" style="stop-color:#FFD66A"/>
			<stop  offset="0.5911" style="stop-color:#FFA72A"/>
			<stop  offset="1" style="stop-color:#FFF2BF"/>
		</linearGradient>
		<path fill="url(#SVGID_4_)" d="M874,72.942c6.905,0,12.66-2.649,16.644-7.661c3.413-4.296,5.293-10.1,5.293-16.342
			c0-11.928-6.928-24.003-20.166-24.003c-12.631,0-22.525,10.933-22.525,24.889C853.244,62.355,862.75,72.942,874,72.942z"/>
		
			<linearGradient id="SVGID_5_" gradientUnits="userSpaceOnUse" x1="378.7949" y1="413.3247" x2="378.7949" y2="710.1978" gradientTransform="matrix(1 0 0 -1 539.04 832.8096)">
			<stop  offset="0" style="stop-color:#D46400"/>
			<stop  offset="0.0443" style="stop-color:#FFF2BF"/>
			<stop  offset="0.1182" style="stop-color:#FFDC7F"/>
			<stop  offset="0.2759" style="stop-color:#FFD66A"/>
			<stop  offset="0.5813" style="stop-color:#FFA72A"/>
			<stop  offset="0.9064" style="stop-color:#FF3800"/>
			<stop  offset="0.9852" style="stop-color:#FFD26A"/>
		</linearGradient>
		<path fill="url(#SVGID_5_)" d="M1055.382,181.108c-12.083,0-21.193,10.927-21.193,25.416c0,17.916,10.634,20.591,16.973,20.591
			c20.361,0,29.637-24.741,29.637-47.728c0-17.653-6.109-32.303-17.668-42.365c-10.829-9.426-25.812-14.409-43.327-14.409
			c-26.256,0-50.571,10.374-72.271,30.833c-21.818,20.571-37.411,44.358-47.668,72.714c-10.106,27.347-15.23,55.637-15.23,84.086
			c0,2.318,0.057,4.709,0.168,7.262l-0.023-0.016l-1.141,2.604c-22.379,51.154-45.302,82.93-59.822,82.93
			c-8.168,0-11.974-4.764-11.974-14.988c0-17.17,4.837-42.504,14.38-75.307l20.508-72.981
			c11.104-40.332,16.975-70.172,16.975-86.296c0-20.178-9.623-30.843-27.828-30.843c-25.691,0-49.636,28.027-80.061,93.715
			l-0.944,2.039l10.396,6.236l1.139-2.604c22.38-51.152,45.303-82.928,59.822-82.928c7.651,0,11.371,4.903,11.371,14.988
			c0,16.778-4.84,42.523-14.384,76.525l-21.104,76.583c-11.019,39.783-16.373,66.434-16.373,81.475
			c0,20.467,9.564,30.846,28.431,30.846c23.95,0,45.924-23.775,73.222-79.363c3.309,17.193,9.618,32.961,18.79,46.918
			c14.764,21.529,35.341,32.445,61.161,32.445c19.945,0,39.688-9.113,57.089-26.354c16.302-16.15,30.317-39.088,40.532-66.33
			l0.718-1.914l-9.051-5.656l-1.138,2.711c-23.221,55.373-50.083,82.289-82.12,82.289c-36.165,0-61.423-37.904-61.423-92.178
			c0-50.037,11.023-92.389,32.764-125.881c21.85-33.657,47.316-50.723,75.696-50.723c28.643,0,45.743,16.424,45.743,43.934
			c0,1.47-0.161,2.754-0.366,3.873C1062.844,181.849,1059.28,181.108,1055.382,181.108z"/>
	</g>
	<g>
		
			<linearGradient id="SVGID_6_" gradientUnits="userSpaceOnUse" x1="-431.8477" y1="415.8247" x2="-431.8477" y2="707.6958" gradientTransform="matrix(1 0 0 -1 539.04 832.8096)">
			<stop  offset="0" style="stop-color:#FF5202"/>
			<stop  offset="0.4089" style="stop-color:#FFB800"/>
			<stop  offset="0.4187" style="stop-color:#FF2A8F"/>
			<stop  offset="0.5911" style="stop-color:#EF000E"/>
			<stop  offset="0.9852" style="stop-color:#FF0007"/>
		</linearGradient>
		<path fill="url(#SVGID_6_)" d="M186.191,225.218c-7.839,10.252-17.488,20.504-29.549,29.549
			c-23.519,18.694-69.35,37.992-125.433,45.831c0,3.016-0.603,15.076-0.603,17.488c0,51.258,22.313,88.043,59.098,88.043
			c33.771,0,72.365-30.754,94.678-83.219l4.824,3.016c-10.854,25.328-25.931,47.037-45.831,64.525
			c-19.297,17.488-39.198,26.533-59.701,26.533c-24.725,0-43.419-10.252-56.083-30.756C15.53,365.727,9.5,341.002,9.5,312.055
			c0-33.77,13.267-78.395,35.58-117.592c22.313-39.197,61.51-69.35,104.929-69.35c31.961,0,54.877,15.679,54.877,52.465
			C204.886,189.639,201.268,203.508,186.191,225.218z M146.994,132.953c-26.534,0-51.258,16.282-74.174,49.449
			c-22.313,32.564-35.579,69.35-39.801,110.357c60.304-9.045,105.533-30.755,125.433-54.877c19.9-24.122,27.74-43.419,27.74-60.304
			C186.191,148.029,172.925,132.953,146.994,132.953z"/>
		
			<linearGradient id="SVGID_7_" gradientUnits="userSpaceOnUse" x1="-224.3979" y1="415.8228" x2="-224.398" y2="707.6978" gradientTransform="matrix(1 0 0 -1 539.04 832.8096)">
			<stop  offset="0" style="stop-color:#FF5202"/>
			<stop  offset="0.4089" style="stop-color:#FFB800"/>
			<stop  offset="0.4187" style="stop-color:#FF2A8F"/>
			<stop  offset="0.5911" style="stop-color:#EF000E"/>
			<stop  offset="0.9852" style="stop-color:#FF0007"/>
		</linearGradient>
		<path fill="url(#SVGID_7_)" d="M428.014,179.99c-9.045,0-13.267-6.633-13.267-19.297c0-11.458,8.443-18.091,16.282-18.091
			c1.206,0,3.618,0.603,7.236,1.809c-0.603-5.427-9.046-10.854-18.091-10.854c-22.313,0-54.274,42.213-95.281,126.036L346,381.407
			c2.412,15.076,7.839,22.916,16.282,22.916c13.87,0,32.564-27.74,55.48-83.223l5.427,3.619
			c-24.123,59.701-43.419,92.268-70.557,92.268c-12.061,0-19.9-7.84-25.328-27.139c-3.015-10.252-4.824-18.092-6.03-24.121
			s-3.016-15.68-4.825-28.344l-8.442-53.067c-44.022,86.235-73.571,130.86-100.105,130.86c-18.694,0-27.74-10.252-27.74-30.756
			c0-15.076,6.031-22.313,18.091-22.313c7.84,0,14.473,7.84,14.473,16.885c0,12.063-7.839,18.695-16.885,18.695
			c-1.809,0-4.221-0.604-6.633-1.811c1.206,9.045,7.236,13.268,18.694,13.268c21.709,0,50.655-47.641,97.09-137.494l-19.297-110.357
			c-3.015-16.282-8.443-24.122-16.282-24.122c-13.87,0-32.564,27.74-54.877,83.823l-6.03-3.618
			c24.122-59.701,43.419-92.266,69.953-92.266c19.9,0,25.328,19.297,34.374,70.556l9.046,51.862
			c40.404-77.792,69.35-121.212,100.105-121.212c4.221-1.206,25.328,1.809,27.137,27.74
			C449.12,171.547,441.884,179.99,428.014,179.99z"/>
		
			<linearGradient id="SVGID_8_" gradientUnits="userSpaceOnUse" x1="-9.1099" y1="415.8228" x2="-9.1099" y2="707.6958" gradientTransform="matrix(1 0 0 -1 539.04 832.8096)">
			<stop  offset="0" style="stop-color:#FF5202"/>
			<stop  offset="0.4089" style="stop-color:#FFB800"/>
			<stop  offset="0.4187" style="stop-color:#FF2A8F"/>
			<stop  offset="0.5911" style="stop-color:#EF000E"/>
			<stop  offset="0.9852" style="stop-color:#FF0007"/>
		</linearGradient>
		<path fill="url(#SVGID_8_)" d="M617.371,315.674c-10.251,27.74-25.931,51.861-47.037,71.762s-44.021,29.551-69.35,29.551
			c-47.642,0-74.777-42.213-74.777-104.328c0-49.449,12.664-92.868,38.595-130.86c25.932-37.992,57.289-56.686,94.074-56.686
			c48.847,0,74.777,43.419,74.777,107.945C633.653,260.194,628.228,287.935,617.371,315.674z M561.892,377.788
			c35.579-42.814,50.054-100.708,50.054-150.76c0-58.495-18.093-94.075-54.274-94.075c-28.343,0-54.273,18.091-76.586,54.877
			c-22.313,36.785-33.771,75.38-33.771,116.991c0,69.35,18.091,104.326,54.273,104.326
			C523.9,409.147,544.403,398.893,561.892,377.788z"/>
		
			<linearGradient id="SVGID_9_" gradientUnits="userSpaceOnUse" x1="176.6221" y1="415.8247" x2="176.6221" y2="806.5962" gradientTransform="matrix(1 0 0 -1 539.04 832.8096)">
			<stop  offset="0" style="stop-color:#FF5202"/>
			<stop  offset="0.3103" style="stop-color:#FFB800"/>
			<stop  offset="0.3202" style="stop-color:#FF2A8F"/>
			<stop  offset="0.5911" style="stop-color:#EF000E"/>
			<stop  offset="0.9852" style="stop-color:#FF0007"/>
		</linearGradient>
		<path fill="url(#SVGID_9_)" d="M794.058,132.953l-3.016,9.648h-75.38l-50.053,189.958c-4.824,17.488-7.236,31.963-7.236,44.625
			c0,19.299,8.442,28.945,25.327,28.945c22.313,0,47.641-36.182,62.717-91.059h7.236c-19.9,68.145-47.037,101.914-81.411,101.914
			c-23.52,0-34.977-12.664-34.977-37.389c0-12.664,2.412-28.344,7.236-47.037L695.157,142.6H655.96l3.015-9.648h21.71
			c13.268,0,23.52-7.237,30.151-22.313c11.458-30.152,21.107-58.495,30.152-84.426h6.634l-28.946,106.739L794.058,132.953
			L794.058,132.953z"/>
		
			<linearGradient id="SVGID_10_" gradientUnits="userSpaceOnUse" x1="287.2817" y1="415.8228" x2="287.2817" y2="805.3901" gradientTransform="matrix(1 0 0 -1 539.04 832.8096)">
			<stop  offset="0" style="stop-color:#FF5202"/>
			<stop  offset="0.3103" style="stop-color:#FFB800"/>
			<stop  offset="0.3202" style="stop-color:#FF2A8F"/>
			<stop  offset="0.5911" style="stop-color:#EF000E"/>
			<stop  offset="0.9852" style="stop-color:#FF0007"/>
		</linearGradient>
		<path fill="url(#SVGID_10_)" d="M892.957,324.719c-26.533,57.289-50.655,92.268-77.792,92.268
			c-17.488,0-25.931-9.65-25.931-28.346c0-15.074,5.427-41.607,16.281-80.807l21.106-76.585
			c9.648-34.374,14.473-60.304,14.473-77.189c0-11.458-4.824-17.488-13.869-17.488c-16.886,0-41.008,36.183-62.113,84.426
			l-6.03-3.618c26.534-57.289,50.655-92.266,77.792-92.266c16.886,0,25.328,9.649,25.328,28.343
			c0,15.076-5.428,44.022-16.885,85.632l-20.504,72.968c-9.648,33.166-14.474,58.494-14.474,75.982
			c0,11.459,4.824,17.488,14.474,17.488c16.886,0,41.007-36.184,62.112-84.428L892.957,324.719z M854.966,50.335
			c0-12.061,8.442-22.916,20.503-22.916c23.52,0,25.328,44.022-1.809,44.022C863.408,71.442,854.966,61.793,854.966,50.335z"/>
		
			<linearGradient id="SVGID_11_" gradientUnits="userSpaceOnUse" x1="444.6753" y1="415.8228" x2="444.6753" y2="707.6938" gradientTransform="matrix(1 0 0 -1 539.04 832.8096)">
			<stop  offset="0" style="stop-color:#FF5202"/>
			<stop  offset="0.4089" style="stop-color:#FFB800"/>
			<stop  offset="0.4187" style="stop-color:#FF2A8F"/>
			<stop  offset="0.5911" style="stop-color:#EF000E"/>
			<stop  offset="0.9852" style="stop-color:#FF0007"/>
		</linearGradient>
		<path fill="url(#SVGID_11_)" d="M1052.16,224.615c-9.648,0-14.474-6.03-14.474-18.091s7.236-22.916,18.694-22.916
			c4.824,0,9.046,1.206,12.062,3.618c0.604-2.412,1.206-4.824,1.206-7.839c0-31.358-21.106-46.434-48.243-46.434
			c-29.549,0-55.479,17.488-77.793,51.861c-22.313,34.374-33.167,77.189-33.167,127.241c0,54.877,25.931,94.68,63.923,94.68
			c33.167,0,60.907-27.74,84.426-83.824l4.824,3.016c-19.9,53.068-54.877,91.061-95.28,91.061
			c-24.726,0-44.626-10.252-59.099-31.357c-13.87-21.105-21.106-46.436-21.106-75.381c0-27.74,4.824-55.479,15.076-83.22
			c10.252-28.343,25.931-51.862,47.037-71.762c21.105-19.9,44.625-30.152,70.556-30.152c33.168,0,58.495,18.694,58.495,54.274
			C1079.297,200.493,1070.854,224.615,1052.16,224.615z"/>
	</g>
</g>
<g id="Layer_3">
	
		<linearGradient id="SVGID_12_" gradientUnits="userSpaceOnUse" x1="9.0386" y1="305.8335" x2="9.0386" y2="401.4155" gradientTransform="matrix(1 0 0 -1 539.04 832.8096)">
		<stop  offset="0" style="stop-color:#A92100"/>
		<stop  offset="0.1724" style="stop-color:#D48200"/>
		<stop  offset="0.4729" style="stop-color:#FFD66A"/>
		<stop  offset="0.7685" style="stop-color:#FF3800"/>
		<stop  offset="0.798" style="stop-color:#FFC96A"/>
	</linearGradient>
	<path fill="url(#SVGID_12_)" d="M633.293,480.772c-0.226-0.639-0.663-1.316-1.204-1.864c-0.75-0.949-1.775-1.562-2.623-1.562
		c-0.391,0-0.729,0.127-0.984,0.364c-0.194,0.159-1.404,1.16-2.977,2.854l-9.422,11.437c-0.047,0.047-0.115,0.111-0.196,0.188
		c-0.606,0.573-1.824,1.728-2.23,2.851c-5.403,4.484-16.719,9.83-22.893,9.831c-1.805,0-3.017-0.442-3.604-1.314
		c-0.705-1.048-0.569-2.869,0.39-5.271c0.273-0.277,0.536-0.547,0.783-0.807c1.587-0.214,7.211-1.121,12.379-3.76
		c2.926-1.465,5.633-4.169,7.244-7.246c0.724-1.447,1.198-2.58,1.324-3.726c0.292-1.75-0.321-3.613-1.673-5.102
		c-0.976-1.116-2.117-1.825-3.418-2.114c-1.573-0.286-5.106,1.236-8.977,3.906c-2.768,2.013-5.718,4.689-8.316,7.549
		c-2.779,3.196-4.577,6.535-5.2,9.647c-0.051,0.244-0.093,0.497-0.127,0.758c-8.232,7.643-24.295,19.978-29.804,22.877
		c-0.921,0.461-3.891,1.566-5.769,1.566c-0.575,0-0.995-0.107-1.166-0.298c-1.188-2.818,2.663-12.907,10.329-27.051l0.294-0.266
		c0.342-0.342,0.541-0.805,0.571-1.315c0.848-1.543,1.72-3.096,2.596-4.624c0.067-0.009,0.126-0.022,0.177-0.038l0.197,0.033
		l0.198-0.198l0.247-0.191c7.996-6.203,34.643-27.561,41.817-41.911c2.139-4.039,2.943-7.396,2.319-9.731
		c-0.686-2.195-2.372-3.789-4.687-4.468c-1.246-0.498-2.668-0.516-4.48-0.021c-4.48,1.301-9.825,5.665-13.618,11.118l0.022,0.016
		c-2.243,2.212-11.585,16.177-12.012,16.813c-4.727,7.071-13.698,20.856-20.79,33.886c-8.982,7.09-11.647,8.151-12.465,8.23
		c-0.408-2.031-0.094-4.313,0.934-6.783l0.045-0.113c0.476-0.868,0.064-2.18-1.141-3.554c-1.408-1.407-2.88-1.873-3.771-0.973
		c-2.84,3.308-10.364,11.533-14.371,13.879c1.478-5.162,4.08-9.131,8.127-12.411c1.583-1.319,5.194-3.146,7.856-3.146
		c0.915,0,1.63,0.214,2.132,0.639c0.622,1.275,1.986,2.475,3.169,2.771c0.729,0.183,1.35-0.014,1.689-0.514
		c0.244-0.361,0.44-1.03,0.009-2.103c-1.142-3.893-4.651-6.218-9.391-6.218c-3.521,0-7.208,1.303-9.86,3.483
		c-1.519,1.228-2.992,2.743-4.378,4.507c-7.175,5.64-20.288,15.117-24.247,15.117c-0.515,0.002-0.607-0.174-0.643-0.239
		c-1.346-2.449,4.189-11.853,10.022-21.325c0.071-0.041,0.127-0.089,0.169-0.131c0.27-0.277,0.264-0.626,0.256-0.964l-0.002-0.144
		c1.244-1.836,2.587-3.577,3.887-5.265c1.423-1.845,2.892-3.758,4.243-5.794h37.368c0.523,0,0.965-0.25,1.212-0.687
		c0.393-0.692,0.251-1.731-0.366-2.759c-0.715-1.285-2.29-2.661-3.496-2.661h-30.887c14.6-21.033,17.641-25.677,18.276-26.766
		l0.032,0.023c0.687-0.92-0.065-2.75-1.173-3.854c-0.698-0.787-1.613-1.257-2.443-1.257c-0.541,0-0.987,0.197-1.257,0.559
		l0.002,0.002c-0.891,1.183-11.228,16.365-21.157,31.292h-42.288c-0.574,0-1.036,0.249-1.269,0.684
		c-0.312,0.582-0.115,1.396,0.472,2.294c0.713,1.389,2.205,2.491,3.562,2.491v0.011c0,0,1.458-0.054,3.746-0.054
		c6.48,0,22.007,0.494,26.426,5.03c0.724,0.744,1.079,1.544,1.102,2.438c-0.45,0.698-0.681,1.089-0.755,1.361
		c-6.724,11.152-14.209,25.267-11.918,29.543c1.099,2.02,2.896,3.044,5.34,3.044c5.686,0,14.134-5.772,20.693-11.07
		c-0.246,2.034,0.313,3.954,1.66,5.707l0.059,0.066c0.795,0.795,1.617,1.618,2.723,2.03c0.44,0.2,0.928,0.302,1.454,0.302
		c2.664,0,6.025-2.503,10.203-6.357c0.187,1.683,0.763,3.05,1.697,4.003c0.987,1.009,2.36,1.541,3.972,1.541
		c1.615,0,3.416-0.513,5.353-1.522c0.922-0.479,1.975-1.157,3.23-2.085c-4.138,9.291-5.229,15.115-3.36,17.743
		c1.387,2.219,3.63,3.344,6.67,3.344c3.907,0,7.94-1.905,9.479-2.718c5.313-2.657,18.953-13.286,27.656-21.043
		c1.068,2.739,3.089,5.077,5.657,6.514c1.337,0.755,2.962,1.138,4.833,1.138c4.306,0,10.117-2.102,16.1-5.8
		c-0.042,2.422,0.902,5.261,4.697,7.191c1.546,0.843,3.463,1.113,5.41,0.693c1.049-0.263,2.132-0.778,3.182-1.532
		c0.803-0.688,1.818-1.647,2.57-3.001c1.168-2.483,1.403-5.642,0.676-9.156c-1.364-5.702,2.326-11.003,4.605-13.613l3.039-2.912
		C633.507,482.302,633.587,481.603,633.293,480.772z M615.514,507.22c-0.538,0.135-1.128,0.19-1.522,0.161
		c0.246-0.55,0.667-1.367,0.883-1.786c0.316-0.614,0.423-0.82,0.458-0.961c0.282-0.869-0.202-2.196-1.15-3.252
		c2.424-1.901,4.396-3.783,5.672-5.409c0.017,0.263,0.055,0.509,0.101,0.762c0.051,0.271,0.095,0.504,0.095,0.794l0.015,0.144
		c0.537,2.473,0.344,4.656-0.591,6.53c-0.315,0.735-0.978,1.529-1.646,1.975l-0.058,0.044c-0.638,0.531-1.394,0.872-2.187,0.984
		L615.514,507.22z M593.772,489.596c1.575-1.561,3.484-3.179,5.774-4.896c1.074-0.788,2.072-1.456,2.982-1.996
		c-1.545,2.476-3.647,4.56-5.675,5.623C595.69,488.835,594.68,489.253,593.772,489.596z M567.24,474.22
		c9.319-14.968,18.106-27.784,18.194-27.915c4.377-6.155,9.413-9.421,12.344-10.333c0.302-0.06,0.627-0.124,0.91-0.171
		c0.067,1.224-0.335,3.358-2.17,7.028C591.859,452.041,578.644,464.52,567.24,474.22z M502.792,471.785l-2.688,4.302
		c-1.82-1.793-5.152-3.452-8.102-4.734L502.792,471.785z"/>
	
		<linearGradient id="SVGID_13_" gradientUnits="userSpaceOnUse" x1="9.0337" y1="306.5093" x2="9.0337" y2="400.7339" gradientTransform="matrix(1 0 0 -1 539.04 832.8096)">
		<stop  offset="0" style="stop-color:#006A59"/>
		<stop  offset="0.0493" style="stop-color:#00778E"/>
		<stop  offset="0.2709" style="stop-color:#2ADEFF"/>
		<stop  offset="0.2857" style="stop-color:#FF0700"/>
		<stop  offset="0.6404" style="stop-color:#FFAE00"/>
		<stop  offset="0.936" style="stop-color:#FFAC6A"/>
	</linearGradient>
	<path fill="url(#SVGID_13_)" d="M631.581,479.357c-0.884-1.138-2.146-1.643-2.649-1.138c0,0-1.263,1.01-2.903,2.778l-9.465,11.483
		c-0.385,0.385-2.017,1.8-2.319,2.953c-8.684,7.332-33.294,17.247-27.272,2.474c0.367-0.371,0.716-0.729,1.035-1.069
		c1.806-0.224,7.369-1.155,12.402-3.725c3.028-1.515,5.552-4.291,6.939-6.941c0.633-1.262,1.137-2.397,1.263-3.533
		c0.252-1.515-0.253-3.155-1.515-4.544c-0.884-1.01-1.893-1.641-3.029-1.893c-1.388-0.253-4.795,1.262-8.455,3.786
		c-2.776,2.02-5.679,4.669-8.203,7.446c-2.524,2.902-4.417,6.184-5.048,9.339c-0.065,0.316-0.113,0.633-0.148,0.948
		c-8.431,7.868-24.562,20.219-30.143,23.156c-1.262,0.631-6.689,2.65-7.825,1.01c-1.523-3.267,3.152-14.513,10.376-27.828
		c0.12-0.106,0.232-0.208,0.354-0.315c0.238-0.24,0.387-0.594,0.376-1.02c0.933-1.696,1.901-3.422,2.904-5.164
		c0.252,0.126,0.379,0,0.505,0c0.126-0.127,33.822-25.746,41.899-41.9c2.271-4.291,2.776-7.32,2.271-9.212
		c-0.631-2.02-2.146-3.407-4.29-4.04c-1.262-0.504-2.65-0.379-4.039,0c-3.912,1.138-9.213,5.048-13.251,10.855
		c-0.717,0.157-20.301,27.771-32.807,50.774c-4.919,3.887-13.277,10.184-13.636,8.036c-0.758-3.534,0.757-6.815,1.01-7.446
		c0.378-0.633-0.127-1.769-1.01-2.778c-1.136-1.135-2.272-1.513-2.777-1.008c0,0-11.484,13.378-15.901,14.639
		c1.389-5.805,4.038-10.348,8.708-14.134c2.272-1.894,8.456-4.796,10.98-2.398c0.503,1.137,1.766,2.272,2.776,2.524
		c1.01,0.253,1.388-0.505,0.883-1.767c-2.146-7.319-12.494-7.067-18.173-2.397c-1.559,1.259-3.027,2.809-4.32,4.461
		c-5.986,4.708-24.076,18.297-25.968,14.722c-1.388-2.525,2.806-9.718,10.505-22.212c0.252,0,0.533-0.252,0.533-0.757v-0.127
		c2.714-4.038,5.115-8.137,7.766-12.208h37.735c0.884,0,1.009-1.175,0.253-2.438c-0.633-1.136-2.02-2.311-2.903-2.311h-32.182
		c9.844-14.249,19.058-27.362,19.058-27.49c0.377-0.505-0.127-1.818-1.136-2.828c-1.009-1.136-2.273-1.501-2.65-0.996
		c-0.126,0.129-10.728,15.029-21.329,31.313h-42.656c-0.885,0-1.01,1.16-0.253,2.296c0.632,1.262,2.02,2.347,2.903,2.347
		c0,0,32.308-1.225,32.055,8.366c0,0-0.883,1.407-0.757,1.407c-8.076,13.378-13.883,25.503-11.989,29.036
		c4.002,7.352,17.416-1.894,26.416-9.369c-0.136,0.569-0.246,1.135-0.292,1.678c-0.251,1.894,0.253,3.661,1.515,5.301
		c0.757,0.758,1.515,1.516,2.524,1.894c2.777,1.263,7.447-2.649,11.989-6.94c-0.125,6.184,4.291,7.951,10.097,4.922
		c1.45-0.751,3.177-1.987,5.319-3.725c-4.369,9.255-6.632,16.715-4.563,19.627c3.155,5.048,10.728,2.776,15.271,0.378
		c5.141-2.569,19.236-13.475,28.271-21.623c0.877,2.969,2.941,5.58,5.681,7.109c5.16,2.917,14.177-0.681,21.4-5.384
		c-0.402,2.406-0.023,5.75,4.22,7.908c1.389,0.757,3.154,1.009,4.922,0.631c1.01-0.252,2.02-0.757,2.902-1.388
		c0.884-0.758,1.767-1.641,2.397-2.777c1.01-2.144,1.389-5.048,0.632-8.708c-1.389-5.806,2.146-11.232,4.795-14.262l3.029-2.901
		C633.096,481.754,632.591,480.365,631.581,479.357z M584.884,445.913c4.038-5.68,9.087-9.466,12.747-10.602
		c0.631-0.127,1.261-0.253,1.641-0.253c0.378,1.641-0.253,4.291-2.146,8.077c-5.427,10.728-22.213,25.618-32.688,34.328
		C574.661,460.804,584.884,445.913,584.884,445.913z M488.212,470.522l15.776,0.631c-1.262,2.021-2.525,4.039-3.786,6.059
		C498.183,474.561,491.999,472.037,488.212,470.522z M599.146,484.151c1.894-1.389,3.534-2.396,4.922-3.029
		c-0.252,0.505-0.378,0.884-0.631,1.389c-1.388,2.397-3.66,5.048-6.311,6.437c-2.02,0.884-3.912,1.641-5.679,2.146
		C593.72,488.442,596.623,486.045,599.146,484.151z M620.728,497.529c0.631,2.902,0.253,5.174-0.631,6.941
		c-0.379,0.883-1.136,1.767-1.894,2.271c-0.757,0.632-1.641,1.01-2.524,1.136c-1.009,0.253-2.019,0.253-2.523,0
		c-0.253-0.126,1.514-3.281,1.514-3.407c0.253-0.631-0.252-2.02-1.389-3.028c-0.046-0.042-0.094-0.074-0.141-0.113
		c3.365-2.561,5.992-5.174,7.082-7.081c0.247-0.494,0.326-0.884,0.075-1.374l2.323-2.665
		C619.593,495.762,620.728,495.888,620.728,497.529z"/>
</g>
</svg>
