<?xml version="1.0" encoding="utf-8"?>
<!-- Generator: Adobe Illustrator 16.0.0, SVG Export Plug-In . SVG Version: 6.00 Build 0)  -->
<!DOCTYPE svg PUBLIC "-//W3C//DTD SVG 1.1//EN" "http://www.w3.org/Graphics/SVG/1.1/DTD/svg11.dtd">
<svg version="1.1" id="Layer_1" xmlns="http://www.w3.org/2000/svg" xmlns:xlink="http://www.w3.org/1999/xlink" x="0px" y="0px"
	 width="140px" height="139px" viewBox="0 0 140 139" enable-background="new 0 0 140 139" xml:space="preserve">
<g>
	<path fill="#FF0000" d="M21.196,99.15c-1.499-0.229-2.994-0.402-4.484-0.521c0.671-0.031,1.403-0.072,2.192-0.12
		c0.792-0.047,1.545-0.108,2.264-0.185c0.72-0.076,1.371-0.18,1.953-0.307c0.584-0.127,0.998-0.3,1.242-0.513
		c0.13-0.106,0.276-0.251,0.433-0.418c0.159-0.169,0.31-0.354,0.453-0.563c0.144-0.209,0.268-0.438,0.373-0.688
		c0.105-0.246,0.167-0.493,0.186-0.731c0.012-0.062-0.018-0.162-0.087-0.31c-0.071-0.146-0.156-0.3-0.253-0.467
		c-0.097-0.166-0.204-0.318-0.323-0.458c-0.118-0.141-0.219-0.23-0.302-0.28c-1.085-0.514-2.168-0.918-3.251-1.216
		c-1.083-0.297-2.03-0.537-2.843-0.717l-0.083,0.281c0.417,0.084,0.838,0.189,1.268,0.313c0.431,0.127,0.847,0.271,1.246,0.427
		c0.4,0.159,0.765,0.321,1.095,0.488c0.329,0.167,0.6,0.334,0.812,0.501c0.088,0.326,0.11,0.668,0.067,1.028
		c-0.042,0.361-0.187,0.606-0.43,0.742c-0.352,0.205-0.86,0.379-1.523,0.521c-0.662,0.144-1.417,0.263-2.264,0.356
		c-0.846,0.098-1.737,0.179-2.669,0.239c-0.934,0.063-1.847,0.108-2.741,0.136c-0.895,0.024-1.729,0.045-2.504,0.057
		c-0.775,0.013-1.416,0.005-1.92-0.021c-0.471,0.104-0.752,0.258-0.848,0.461c-0.098,0.203-0.088,0.42,0.027,0.65
		c0.115,0.23,0.295,0.465,0.54,0.699c0.247,0.234,0.465,0.439,0.662,0.619c0.279-0.006,0.611-0.026,0.998-0.063
		c0.387-0.036,0.815-0.075,1.289-0.116c0.472-0.043,0.965-0.074,1.479-0.095c0.514-0.019,1.017-0.021,1.51-0.015
		c1.628,0.054,3.222,0.175,4.784,0.359c1.562,0.188,2.971,0.418,4.229,0.688c1.259,0.271,2.314,0.565,3.167,0.887
		c0.854,0.32,1.393,0.649,1.618,0.986c0.093,0.297,0.133,0.628,0.12,0.993c-0.013,0.365-0.193,0.639-0.539,0.814
		c-0.571,0.145-1.344,0.234-2.317,0.275c-0.975,0.04-2.146,0.113-3.512,0.222c-0.564,0.037-1.145,0.08-1.742,0.13
		c-0.597,0.047-1.165,0.102-1.703,0.159c-0.538,0.062-1.013,0.138-1.427,0.229c-0.414,0.091-0.709,0.194-0.887,0.313
		c-0.203,0.159-0.451,0.405-0.743,0.738c-0.293,0.332-0.53,0.68-0.713,1.042c-0.184,0.362-0.268,0.72-0.255,1.067
		c0.013,0.349,0.216,0.625,0.606,0.828c0.504,0.256,1.035,0.493,1.593,0.715c0.558,0.223,1.111,0.418,1.664,0.595
		c0.551,0.173,1.083,0.327,1.598,0.464c0.512,0.135,0.968,0.249,1.365,0.348l0.063-0.311c-0.913-0.143-1.765-0.381-2.554-0.717
		c-0.788-0.338-1.351-0.664-1.688-0.979c-0.099-0.344-0.107-0.646-0.022-0.903c0.085-0.261,0.229-0.47,0.431-0.629
		c0.477-0.363,1.186-0.603,2.128-0.707c0.942-0.108,1.995-0.216,3.161-0.314c0.85-0.071,1.664-0.123,2.44-0.147
		c0.778-0.024,1.484-0.057,2.118-0.088c0.632-0.032,1.181-0.088,1.644-0.162c0.464-0.073,0.79-0.198,0.981-0.377
		c0.256-0.271,0.43-0.569,0.521-0.896c0.091-0.328,0.136-0.646,0.138-0.952c0.001-0.31-0.029-0.587-0.094-0.839
		c-0.063-0.252-0.134-0.454-0.21-0.606c-0.384-0.388-1.053-0.767-2.004-1.137c-0.952-0.371-2.068-0.71-3.351-1.019
		C24.085,99.646,22.696,99.378,21.196,99.15z"/>
	<path fill="#FF0000" d="M62.73,126.604c-0.462,0.808-0.986,1.643-1.571,2.506c-0.584,0.865-1.166,1.691-1.747,2.481
		s-1.14,1.521-1.682,2.195c-0.542,0.674-0.996,1.217-1.362,1.624c-0.003,0.063,0.005,0.115,0.022,0.16
		c0.041,0.063,0.126,0.039,0.263-0.081c0.384-0.363,0.814-0.751,1.288-1.163c0.474-0.41,0.832-0.705,1.079-0.885
		c0.443,0.535,0.837,0.97,1.182,1.299c0.347,0.328,0.681,0.582,1.004,0.759c0.323,0.179,0.648,0.303,0.976,0.374
		c0.33,0.072,0.686,0.119,1.07,0.141c0.706,0.038,1.573-0.104,2.598-0.434c1.026-0.328,2.079-0.82,3.156-1.477
		c1.077-0.655,2.104-1.465,3.08-2.424c0.975-0.963,1.755-2.064,2.34-3.313c0.363-0.748,0.648-1.533,0.854-2.355
		c0.207-0.819,0.332-1.599,0.373-2.331c0.039-0.734-0.021-1.396-0.182-1.979c-0.16-0.586-0.425-1.038-0.793-1.354
		c-0.082-0.07-0.277-0.125-0.587-0.162c-0.308-0.039-0.54-0.012-0.694,0.09c-0.694,0.539-1.465,1.146-2.308,1.826
		c-0.841,0.68-1.703,1.39-2.58,2.131c-0.877,0.742-1.745,1.494-2.603,2.26c-0.858,0.764-1.661,1.498-2.408,2.203
		c0.303-0.432,0.657-0.903,1.061-1.414c0.404-0.512,0.787-1.034,1.15-1.569c0.362-0.535,0.671-1.079,0.926-1.63
		c0.256-0.553,0.376-1.073,0.362-1.564c-0.003-0.318-0.071-0.732-0.204-1.244c-0.133-0.51-0.36-0.965-0.68-1.365
		c-0.02-0.043-0.114-0.08-0.284-0.111c-0.17-0.027-0.352-0.057-0.543-0.077c-0.191-0.021-0.379-0.024-0.563-0.015
		c-0.182,0.011-0.318,0.035-0.406,0.07c-1.061,0.563-2.051,1.205-2.971,1.937c-0.921,0.729-1.696,1.362-2.327,1.903l0.18,0.234
		c0.34-0.324,0.7-0.623,1.08-0.9c0.379-0.277,0.754-0.528,1.12-0.756c0.367-0.227,0.709-0.42,1.03-0.584
		c0.32-0.164,0.579-0.281,0.775-0.356c0.314,0.125,0.572,0.321,0.772,0.588c0.199,0.271,0.303,0.54,0.308,0.817
		c-0.003,0.447-0.147,1.017-0.432,1.703C63.569,125.047,63.194,125.795,62.73,126.604z M64.067,128.613
		c1.19-1.143,2.348-2.204,3.475-3.188c1.128-0.981,2.15-1.807,3.065-2.472c0.916-0.664,1.568-1.039,1.961-1.125
		c0.398,0.513,0.562,1.392,0.479,2.637c-0.081,1.244-0.422,2.641-1.021,4.186c-0.377,0.965-0.84,1.854-1.389,2.681
		c-0.552,0.821-1.138,1.539-1.763,2.146c-0.623,0.604-1.26,1.075-1.912,1.416c-0.652,0.338-1.255,0.49-1.812,0.461
		c-0.321-0.02-0.634-0.084-0.939-0.196c-0.305-0.112-0.626-0.302-0.965-0.564c-0.34-0.265-0.707-0.614-1.101-1.053
		c-0.393-0.438-0.829-1.002-1.305-1.688C61.804,130.83,62.878,129.753,64.067,128.613z"/>
	<path fill="#FF0000" d="M52.85,7.235c0.611-1.065,0.984-1.956,1.122-2.671c0.138-0.713,0.075-1.294-0.19-1.742
		C53.519,2.374,53.088,2.134,52.49,2.1c-0.598-0.036-1.237,0.078-1.917,0.337c-0.6,0.229-1.188,0.566-1.76,1.014
		c-0.574,0.446-1.088,0.939-1.545,1.479c-0.393,0.468-0.783,1.005-1.169,1.61c-0.386,0.604-0.735,1.233-1.044,1.888
		c-0.31,0.654-0.581,1.322-0.811,2.003c-0.23,0.683-0.391,1.325-0.479,1.93c-0.194,1.101-0.282,2.053-0.259,2.854
		c0.022,0.801,0.099,1.492,0.23,2.069c0.13,0.577,0.304,1.059,0.521,1.445c0.217,0.384,0.423,0.71,0.618,0.979
		c0.251,0.292,0.54,0.535,0.868,0.729c0.326,0.195,0.668,0.351,1.021,0.467c0.354,0.115,0.709,0.173,1.065,0.175
		c0.355,0.002,0.685-0.055,0.984-0.17c0.718-0.274,1.359-0.685,1.917-1.228c0.56-0.545,1.044-1.054,1.458-1.531
		c0.631-0.743,1.242-1.599,1.833-2.565c0.59-0.966,1.054-1.936,1.39-2.909l-0.328-0.047c-0.125,0.391-0.295,0.809-0.512,1.257
		c-0.218,0.449-0.448,0.879-0.691,1.291c-0.242,0.412-0.482,0.788-0.717,1.129c-0.235,0.342-0.438,0.59-0.606,0.746
		c-0.461,0.472-1.004,0.908-1.63,1.307c-0.628,0.397-1.207,0.62-1.74,0.664c-0.438,0.052-0.869-0.023-1.291-0.227
		c-0.423-0.205-0.825-0.564-1.208-1.08c-0.188-0.43-0.365-0.887-0.529-1.374c1.653-2.022,3.028-3.779,4.127-5.271
		C51.385,9.58,52.24,8.3,52.85,7.235z M46.074,16.033c-0.256-1.02-0.368-2.102-0.337-3.244c0.029-1.142,0.147-2.236,0.352-3.284
		c0.204-1.048,0.463-1.997,0.778-2.848c0.314-0.85,0.634-1.508,0.958-1.974c0.386-0.308,0.843-0.504,1.372-0.592
		c0.529-0.087,1.028-0.055,1.499,0.096c0.472,0.151,0.871,0.399,1.199,0.741c0.326,0.344,0.488,0.778,0.485,1.304
		c0.018,0.404-0.088,0.877-0.313,1.421c-0.227,0.543-0.592,1.19-1.093,1.941c-0.502,0.751-1.16,1.651-1.97,2.702
		C48.192,13.347,47.216,14.592,46.074,16.033z"/>
	<path fill="#FF0000" d="M38.917,111.271c-0.652-0.045-1.348-0.069-2.084-0.071c-0.738-0.003-1.497,0.046-2.278,0.143
		c-0.783,0.099-1.568,0.244-2.356,0.441c-0.79,0.198-1.568,0.481-2.335,0.852c-0.428,0.191-0.887,0.441-1.374,0.751
		c-0.485,0.309-0.944,0.65-1.374,1.024c-0.428,0.377-0.821,0.772-1.174,1.188c-0.352,0.416-0.615,0.854-0.785,1.31
		c-0.196,0.489-0.297,1.041-0.303,1.651c-0.007,0.611,0.136,1.063,0.43,1.352c0.209,0.148,0.525,0.258,0.952,0.326
		c0.425,0.068,0.897,0.105,1.413,0.125c0.518,0.015,1.046,0.013,1.588-0.01c0.542-0.021,1.039-0.049,1.492-0.096
		c1.318-0.105,2.899-0.263,4.747-0.465c1.847-0.201,3.736-0.453,5.667-0.753c-2.749,1.289-5.222,2.449-7.416,3.479
		c-2.194,1.029-4.072,1.879-5.636,2.545c-1.86,0.821-3.404,1.42-4.631,1.787c-1.229,0.368-2.272,0.563-3.128,0.58
		s-1.596-0.109-2.215-0.385c-0.621-0.273-1.244-0.634-1.872-1.082c-1.27-0.906-2.421-1.842-3.454-2.804
		c-1.033-0.961-1.967-1.741-2.802-2.338c-0.157-0.112-0.396-0.149-0.71-0.114c-0.316,0.038-0.616,0.124-0.9,0.264
		c-0.284,0.141-0.5,0.299-0.646,0.482s-0.128,0.368,0.055,0.552c0.275,0.275,0.696,0.629,1.257,1.058
		c0.561,0.428,1.121,0.841,1.677,1.235c1.652,1.185,3.388,2.042,5.202,2.577c1.815,0.536,3.594,0.852,5.335,0.939
		c1.742,0.09,3.368,0,4.881-0.271c1.515-0.271,2.786-0.626,3.819-1.067c0.446-0.182,1.14-0.483,2.083-0.914
		c0.942-0.429,2.019-0.924,3.232-1.486c1.211-0.563,2.486-1.163,3.826-1.794c1.338-0.632,2.617-1.226,3.838-1.783
		c1.22-0.56,2.316-1.062,3.286-1.51c0.97-0.448,1.693-0.767,2.168-0.949c0.402-0.267,0.62-0.503,0.654-0.714
		c0.034-0.212-0.024-0.405-0.175-0.578c-0.152-0.174-0.345-0.326-0.582-0.456c-0.235-0.128-0.423-0.243-0.563-0.342l-2.217,0.934
		c-0.016-0.929-0.139-1.753-0.373-2.472c-0.233-0.719-0.629-1.275-1.185-1.673c-0.539-0.388-1.226-0.694-2.063-0.925
		C41.048,111.589,40.059,111.405,38.917,111.271z M42.954,114.53c0.354,0.844,0.475,2,0.363,3.469
		c-0.757,0.247-1.656,0.469-2.699,0.67c-1.041,0.201-2.127,0.381-3.26,0.543c-1.132,0.162-2.27,0.308-3.417,0.433
		c-1.145,0.127-2.21,0.231-3.195,0.313c-0.804,0.056-1.478,0.047-2.019-0.024c-0.54-0.072-0.907-0.177-1.098-0.313
		c-0.13-0.223-0.209-0.45-0.24-0.684c-0.031-0.23,0.055-0.578,0.254-1.039c0.221-0.521,0.73-1.211,1.526-2.059
		c0.796-0.849,1.91-1.68,3.342-2.492c0.699-0.418,1.348-0.744,1.946-0.972c0.6-0.229,1.155-0.401,1.664-0.522
		c0.509-0.121,0.996-0.201,1.458-0.237c0.462-0.035,0.905-0.074,1.329-0.113c0.549,0.08,1.02,0.213,1.412,0.399
		c0.391,0.188,0.762,0.406,1.109,0.654C42.093,113.029,42.601,113.688,42.954,114.53z"/>
	<path fill="#FF0000" d="M14.861,66.081c-0.295,0.057-0.644,0.037-1.042-0.055c-0.399-0.094-0.835-0.226-1.307-0.396
		c-0.474-0.17-0.972-0.37-1.494-0.599c-0.522-0.23-1.057-0.462-1.602-0.701c-1.502-0.662-2.783-1.156-3.845-1.484
		c-1.064-0.328-1.932-0.506-2.603-0.535c-0.671-0.029-1.17,0.083-1.497,0.336c-0.326,0.251-0.514,0.627-0.563,1.127
		c0.208,0.491,0.634,1.145,1.281,1.959c0.646,0.816,1.437,1.685,2.376,2.606c0.938,0.921,1.974,1.853,3.109,2.794
		c1.135,0.941,2.308,1.792,3.517,2.553c-1.182-0.525-2.317-0.91-3.402-1.146c-1.083-0.24-2.046-0.354-2.885-0.344
		c-0.84,0.015-1.51,0.141-2.011,0.381c-0.5,0.238-0.777,0.589-0.831,1.046c0.233,0.528,0.696,1.207,1.385,2.026
		c0.688,0.82,1.536,1.692,2.54,2.617c1.003,0.924,2.114,1.858,3.335,2.799c1.221,0.942,2.472,1.803,3.748,2.576
		c-0.545-0.236-1.13-0.486-1.753-0.746c-0.624-0.261-1.25-0.494-1.878-0.699c-0.627-0.204-1.216-0.356-1.768-0.453
		c-0.55-0.098-1.038-0.11-1.459-0.039c-0.253,0.05-0.587,0.152-0.999,0.311C4.8,82.165,4.429,82.359,4.102,82.59
		c-0.329,0.23-0.567,0.496-0.717,0.791c-0.147,0.297-0.094,0.623,0.164,0.979c0.334,0.455,0.699,0.908,1.097,1.354
		c0.397,0.448,0.803,0.873,1.218,1.276c0.414,0.4,0.819,0.777,1.216,1.131c0.396,0.35,0.75,0.656,1.062,0.922l0.196-0.248
		c-0.752-0.535-1.404-1.13-1.956-1.785c-0.552-0.654-0.905-1.197-1.064-1.63c0.066-0.353,0.217-0.621,0.454-0.812
		c0.237-0.188,0.493-0.311,0.767-0.36c0.444-0.073,0.991-0.051,1.641,0.065c0.65,0.117,1.355,0.297,2.118,0.543
		c0.762,0.242,1.557,0.537,2.384,0.883c0.827,0.344,1.628,0.695,2.403,1.056c0.776,0.362,1.501,0.712,2.178,1.052
		c0.676,0.342,1.246,0.646,1.708,0.912c0.467,0.117,0.79,0.107,0.967-0.031c0.178-0.139,0.28-0.332,0.305-0.582
		c0.025-0.25,0.005-0.512-0.06-0.779c-0.063-0.271-0.105-0.493-0.126-0.662c-0.295-0.139-0.655-0.3-1.075-0.486
		c-0.421-0.188-0.859-0.39-1.317-0.604c-0.456-0.217-0.929-0.436-1.419-0.655c-0.49-0.226-0.954-0.448-1.39-0.675
		c-1.425-0.76-2.76-1.568-4.004-2.436c-1.246-0.863-2.353-1.718-3.325-2.56c-0.973-0.843-1.771-1.625-2.395-2.347
		c-0.623-0.721-1.036-1.308-1.241-1.754c0.098-0.101,0.232-0.188,0.406-0.272c0.173-0.085,0.41-0.133,0.71-0.147
		c0.941-0.063,1.997,0.063,3.167,0.392c1.17,0.323,2.345,0.729,3.522,1.217c1.179,0.483,2.305,0.987,3.38,1.506
		c1.073,0.521,1.985,0.933,2.731,1.229c0.441,0.076,0.752,0.063,0.934-0.045c0.182-0.106,0.292-0.271,0.331-0.487
		c0.039-0.22,0.031-0.472-0.024-0.754c-0.055-0.284-0.097-0.554-0.126-0.808c-0.293-0.117-0.65-0.265-1.07-0.438
		s-0.858-0.366-1.313-0.57c-0.454-0.206-0.928-0.419-1.417-0.641c-0.49-0.224-0.95-0.438-1.385-0.646
		c-1.416-0.675-2.742-1.453-3.978-2.34c-1.236-0.887-2.337-1.771-3.303-2.66c-0.967-0.885-1.771-1.714-2.412-2.488
		S2.98,65.8,2.774,65.33c0.15-0.188,0.344-0.334,0.579-0.438c0.237-0.102,0.585-0.12,1.046-0.057
		c0.461,0.065,1.067,0.23,1.821,0.498c0.752,0.266,1.744,0.66,2.969,1.184c0.521,0.219,1.074,0.465,1.656,0.741
		c0.583,0.275,1.155,0.525,1.721,0.749c0.566,0.224,1.1,0.404,1.601,0.539c0.5,0.136,0.91,0.173,1.226,0.115
		c0.17-0.02,0.363-0.068,0.581-0.148c0.217-0.079,0.436-0.185,0.658-0.318c0.222-0.133,0.435-0.287,0.643-0.46
		c0.206-0.175,0.371-0.365,0.498-0.572c0.054-0.093,0.076-0.316,0.068-0.668c-0.01-0.354-0.078-0.608-0.205-0.765
		c-0.734-0.945-1.52-1.792-2.352-2.543c-0.832-0.752-1.569-1.39-2.213-1.917l-0.201,0.218c0.333,0.261,0.662,0.544,0.989,0.85
		c0.326,0.307,0.632,0.62,0.918,0.94c0.285,0.321,0.539,0.629,0.756,0.926c0.219,0.296,0.384,0.566,0.5,0.811
		c-0.068,0.329-0.213,0.578-0.43,0.743C15.38,65.919,15.136,66.029,14.861,66.081z"/>
	<path fill="#FF0000" d="M35.603,15.12c0.266-1.197,0.358-2.159,0.277-2.88c-0.082-0.723-0.315-1.26-0.699-1.608
		c-0.384-0.348-0.868-0.453-1.45-0.31c-0.581,0.145-1.158,0.438-1.73,0.887c-0.504,0.396-0.965,0.892-1.38,1.487
		c-0.414,0.595-0.759,1.218-1.036,1.869c-0.235,0.564-0.448,1.192-0.638,1.882c-0.189,0.691-0.335,1.393-0.438,2.11
		c-0.101,0.717-0.161,1.434-0.178,2.154c-0.018,0.718,0.021,1.378,0.117,1.981c0.141,1.111,0.342,2.045,0.602,2.804
		c0.259,0.759,0.537,1.396,0.833,1.909c0.297,0.514,0.606,0.923,0.928,1.226c0.323,0.303,0.616,0.555,0.882,0.754
		c0.326,0.205,0.675,0.354,1.044,0.443c0.372,0.089,0.743,0.138,1.116,0.144c0.373,0.005,0.73-0.043,1.07-0.146
		c0.339-0.104,0.636-0.254,0.889-0.452c0.605-0.475,1.095-1.054,1.466-1.739c0.373-0.684,0.684-1.315,0.937-1.891
		c0.381-0.897,0.71-1.893,0.988-2.99c0.276-1.098,0.431-2.16,0.462-3.188l-0.326,0.052c-0.003,0.409-0.042,0.86-0.117,1.351
		c-0.075,0.493-0.166,0.971-0.276,1.438c-0.108,0.463-0.225,0.895-0.349,1.289c-0.123,0.396-0.243,0.692-0.358,0.89
		c-0.3,0.587-0.689,1.163-1.169,1.729c-0.479,0.564-0.967,0.947-1.463,1.146c-0.404,0.18-0.837,0.233-1.302,0.164
		c-0.464-0.071-0.955-0.297-1.474-0.676c-0.308-0.355-0.611-0.741-0.913-1.156c0.976-2.418,1.768-4.501,2.374-6.25
		C34.901,17.791,35.337,16.318,35.603,15.12z M31.747,25.52c-0.546-0.9-0.977-1.899-1.286-2.999c-0.312-1.1-0.524-2.18-0.641-3.24
		c-0.117-1.06-0.151-2.043-0.104-2.948c0.047-0.905,0.157-1.628,0.329-2.17c0.277-0.407,0.655-0.729,1.133-0.968
		c0.479-0.24,0.967-0.356,1.461-0.35c0.495,0.005,0.949,0.123,1.364,0.355c0.414,0.232,0.697,0.599,0.852,1.103
		c0.136,0.381,0.178,0.864,0.123,1.448c-0.055,0.585-0.211,1.312-0.467,2.176c-0.256,0.864-0.616,1.918-1.077,3.161
		S32.41,23.807,31.747,25.52z"/>
	<path fill="#FF0000" d="M21.53,25.04l0.076-0.104c0.011-0.521-0.11-1.031-0.363-1.534c-0.254-0.502-0.636-0.806-1.142-0.911
		c-0.555-0.114-1.075,0.008-1.563,0.365c-0.49,0.358-0.955,0.837-1.397,1.438c-0.423,0.538-0.741,1.106-0.956,1.703
		c-0.214,0.597-0.384,1.179-0.511,1.748c-0.264,1.26,0.044,2.311,0.924,3.153c0.881,0.84,2.46,1.536,4.737,2.087
		c1.07,0.279,2.03,0.524,2.883,0.736c0.853,0.212,1.56,0.451,2.123,0.715c0.561,0.264,0.973,0.571,1.234,0.919
		c0.261,0.35,0.339,0.777,0.232,1.281c-0.365,1.397-1.29,2.255-2.773,2.575c-0.606,0.138-1.221,0.133-1.84-0.015
		c-0.621-0.149-1.187-0.437-1.696-0.861l-0.154,0.045c-0.175,0.454-0.233,0.894-0.175,1.32c0.059,0.425,0.19,0.806,0.395,1.14
		c0.206,0.334,0.472,0.615,0.798,0.839c0.326,0.225,0.652,0.35,0.978,0.376c0.621,0.059,1.229-0.092,1.826-0.451
		c0.595-0.358,1.088-0.819,1.476-1.382c0.506-0.688,0.881-1.367,1.121-2.037c0.242-0.67,0.393-1.406,0.451-2.208
		c0.109-1.48-0.392-2.666-1.503-3.556c-1.111-0.889-2.648-1.534-4.61-1.935c-1.137-0.222-2.094-0.438-2.869-0.647
		c-0.777-0.209-1.403-0.448-1.881-0.719c-0.48-0.269-0.814-0.572-1.004-0.91c-0.19-0.337-0.26-0.738-0.209-1.203
		C16.851,25.208,18.65,24.55,21.53,25.04z"/>
	<path fill="#FF0000" d="M136.27,73.161c-0.857-0.995-1.813-2.009-2.867-3.039c-1.053-1.031-2.147-1.977-3.293-2.834
		c1.137,0.625,2.232,1.1,3.293,1.427c1.063,0.326,2.014,0.519,2.852,0.576c0.837,0.058,1.52-0.013,2.034-0.211
		c0.521-0.2,0.821-0.524,0.916-0.975c-0.188-0.548-0.599-1.26-1.213-2.136c-0.62-0.874-1.392-1.815-2.314-2.817
		c-0.923-1.004-1.952-2.025-3.093-3.065s-2.313-1.997-3.521-2.874c0.522,0.281,1.088,0.578,1.688,0.887
		c0.603,0.312,1.203,0.595,1.813,0.852c0.606,0.258,1.184,0.457,1.726,0.598c0.54,0.143,1.022,0.196,1.451,0.161
		c0.257-0.031,0.597-0.105,1.021-0.227c0.426-0.12,0.812-0.282,1.156-0.486c0.348-0.203,0.605-0.446,0.777-0.73
		c0.175-0.282,0.146-0.613-0.081-0.989c-0.296-0.48-0.62-0.96-0.979-1.438c-0.357-0.478-0.728-0.936-1.104-1.37
		c-0.38-0.436-0.753-0.845-1.118-1.226c-0.366-0.383-0.693-0.718-0.979-1.007l-0.22,0.23c0.706,0.595,1.308,1.242,1.802,1.939
		c0.495,0.699,0.805,1.27,0.926,1.713c-0.096,0.345-0.271,0.602-0.521,0.77c-0.252,0.167-0.518,0.268-0.793,0.298
		c-0.449,0.036-0.993-0.031-1.632-0.203c-0.64-0.17-1.325-0.409-2.063-0.715c-0.738-0.305-1.508-0.663-2.304-1.073
		c-0.796-0.412-1.563-0.829-2.31-1.252c-0.743-0.423-1.438-0.832-2.084-1.226c-0.646-0.394-1.188-0.744-1.627-1.049
		c-0.452-0.156-0.774-0.172-0.965-0.047c-0.188,0.123-0.307,0.308-0.353,0.555c-0.045,0.247-0.047,0.509-0.005,0.785
		c0.041,0.276,0.064,0.498,0.068,0.668c0.283,0.162,0.629,0.354,1.031,0.574c0.404,0.221,0.824,0.458,1.264,0.71
		c0.438,0.251,0.892,0.509,1.357,0.771c0.471,0.261,0.913,0.523,1.328,0.786c1.357,0.873,2.622,1.791,3.79,2.754
		c1.169,0.963,2.202,1.905,3.103,2.823c0.897,0.919,1.629,1.764,2.188,2.535c0.563,0.771,0.927,1.388,1.092,1.852
		c-0.104,0.087-0.247,0.167-0.427,0.237c-0.18,0.071-0.42,0.101-0.721,0.089c-0.941-0.011-1.984-0.227-3.125-0.648
		c-1.141-0.42-2.274-0.921-3.408-1.501c-1.135-0.581-2.217-1.174-3.241-1.779c-1.026-0.605-1.901-1.088-2.621-1.448
		c-0.433-0.113-0.743-0.125-0.934-0.032c-0.19,0.091-0.313,0.245-0.37,0.459c-0.059,0.215-0.069,0.467-0.039,0.754
		c0.029,0.287,0.051,0.558,0.063,0.814c0.28,0.14,0.625,0.315,1.027,0.525c0.404,0.211,0.824,0.437,1.262,0.678
		c0.438,0.242,0.892,0.493,1.359,0.754c0.469,0.261,0.911,0.514,1.326,0.756c1.354,0.787,2.611,1.672,3.771,2.658
		c1.157,0.984,2.185,1.958,3.07,2.92c0.893,0.962,1.622,1.854,2.196,2.678c0.571,0.824,0.944,1.479,1.108,1.963
		c-0.164,0.179-0.369,0.309-0.613,0.392c-0.241,0.083-0.592,0.071-1.045-0.029c-0.455-0.104-1.045-0.315-1.772-0.646
		c-0.729-0.326-1.683-0.803-2.86-1.424c-0.5-0.263-1.031-0.554-1.588-0.875c-0.559-0.32-1.107-0.619-1.652-0.89
		s-1.063-0.491-1.549-0.668c-0.488-0.177-0.896-0.248-1.215-0.216c-0.172,0.005-0.367,0.039-0.592,0.1
		c-0.225,0.063-0.451,0.148-0.686,0.264c-0.229,0.115-0.457,0.25-0.676,0.406c-0.222,0.155-0.401,0.334-0.545,0.529
		c-0.063,0.088-0.104,0.309-0.123,0.66c-0.021,0.354,0.024,0.609,0.142,0.777c0.653,1.002,1.364,1.912,2.132,2.729
		c0.77,0.816,1.449,1.516,2.049,2.094l0.219-0.199c-0.312-0.289-0.615-0.601-0.914-0.931c-0.303-0.331-0.582-0.669-0.841-1.013
		c-0.258-0.346-0.481-0.671-0.676-0.982c-0.19-0.313-0.336-0.599-0.431-0.852c0.097-0.322,0.26-0.559,0.49-0.703
		c0.229-0.146,0.483-0.234,0.763-0.268c0.3-0.029,0.645,0.018,1.032,0.143c0.393,0.126,0.813,0.293,1.271,0.501
		c0.456,0.209,0.938,0.449,1.438,0.722c0.502,0.271,1.017,0.547,1.539,0.827c1.438,0.783,2.676,1.384,3.709,1.798
		c1.03,0.412,1.881,0.66,2.547,0.745c0.67,0.085,1.177,0.015,1.521-0.211c0.346-0.225,0.563-0.584,0.653-1.075
		c-0.167-0.51-0.538-1.192-1.114-2.062C137.844,75.086,137.127,74.157,136.27,73.161z"/>
	<path fill="#FF0000" d="M89.977,1.946c-0.414,0.33-0.873,0.68-1.379,1.049c-0.509,0.372-0.892,0.636-1.148,0.793
		c-0.396-0.571-0.754-1.036-1.068-1.391c-0.316-0.356-0.632-0.637-0.938-0.841C85.133,1.353,84.82,1.201,84.5,1.103
		c-0.32-0.099-0.673-0.175-1.057-0.229c-0.698-0.097-1.574-0.026-2.623,0.216C79.77,1.332,78.68,1.734,77.55,2.297
		c-1.129,0.564-2.219,1.284-3.271,2.16c-1.055,0.874-1.924,1.91-2.609,3.105c-0.425,0.715-0.773,1.474-1.05,2.275
		c-0.275,0.801-0.463,1.564-0.565,2.293c-0.104,0.728-0.099,1.391,0.012,1.986c0.111,0.597,0.337,1.07,0.676,1.419
		c0.075,0.075,0.268,0.145,0.569,0.208c0.307,0.065,0.539,0.054,0.703-0.031c0.735-0.479,1.555-1.02,2.448-1.628
		c0.896-0.606,1.813-1.242,2.75-1.909c0.938-0.665,1.865-1.343,2.783-2.032c0.919-0.691,1.778-1.355,2.585-1.998
		c-0.339,0.406-0.729,0.847-1.176,1.322c-0.446,0.477-0.871,0.965-1.276,1.469c-0.405,0.503-0.761,1.019-1.063,1.545
		c-0.301,0.529-0.465,1.04-0.487,1.531c-0.022,0.319,0.01,0.738,0.099,1.255c0.092,0.519,0.277,0.991,0.563,1.419
		c0.015,0.045,0.104,0.089,0.271,0.135c0.166,0.046,0.346,0.086,0.533,0.123c0.189,0.038,0.376,0.057,0.559,0.062
		c0.187,0.003,0.321-0.01,0.412-0.041c1.104-0.471,2.146-1.03,3.123-1.679c0.979-0.648,1.805-1.218,2.479-1.705l-0.158-0.248
		c-0.367,0.293-0.75,0.563-1.149,0.808c-0.401,0.245-0.797,0.465-1.182,0.659c-0.384,0.194-0.74,0.36-1.074,0.496
		c-0.332,0.136-0.603,0.233-0.805,0.292c-0.305-0.151-0.544-0.367-0.723-0.649c-0.176-0.284-0.254-0.564-0.236-0.841
		c0.042-0.446,0.23-1.001,0.576-1.663c0.34-0.663,0.773-1.376,1.306-2.142s1.122-1.555,1.777-2.368
		c0.655-0.81,1.305-1.585,1.95-2.325c0.644-0.738,1.265-1.42,1.856-2.048c0.599-0.627,1.097-1.127,1.494-1.503
		c0.008-0.063,0.005-0.117-0.01-0.162C90.21,1.817,90.121,1.838,89.977,1.946z M82.014,8.18c-1.281,1.038-2.523,2-3.729,2.885
		c-1.205,0.887-2.294,1.623-3.265,2.208c-0.97,0.587-1.649,0.905-2.047,0.958c-0.355-0.545-0.441-1.434-0.259-2.667
		s0.642-2.595,1.368-4.085c0.456-0.927,0.991-1.777,1.609-2.552c0.615-0.775,1.261-1.438,1.933-1.99
		c0.673-0.553,1.349-0.97,2.024-1.252c0.678-0.282,1.293-0.384,1.845-0.308c0.317,0.045,0.624,0.136,0.918,0.274
		c0.294,0.138,0.6,0.352,0.915,0.644c0.314,0.291,0.65,0.672,1.007,1.14c0.356,0.47,0.742,1.067,1.159,1.792
		C84.453,6.158,83.293,7.143,82.014,8.18z"/>
	<path fill="#FF0000" d="M125.725,4.445c-0.328-0.212-0.813-0.47-1.451-0.771c-0.639-0.302-1.271-0.589-1.896-0.863
		c-1.863-0.813-3.73-1.294-5.604-1.448c-1.875-0.152-3.646-0.099-5.315,0.162c-1.67,0.261-3.209,0.678-4.618,1.25
		c-1.408,0.574-2.574,1.184-3.49,1.831c-0.36,0.239-0.918,0.618-1.675,1.139c-0.754,0.521-1.61,1.124-2.569,1.813
		c-0.955,0.688-1.965,1.424-3.021,2.207c-1.06,0.783-2.081,1.554-3.067,2.311c-0.453,0.337-0.914,0.696-1.386,1.072
		c-0.469,0.378-0.899,0.748-1.296,1.111c-0.395,0.365-0.738,0.725-1.038,1.083c-0.298,0.36-0.501,0.689-0.61,0.991
		c-0.065,0.156-0.127,0.345-0.179,0.567s-0.088,0.462-0.106,0.722c-0.021,0.258-0.012,0.519,0.025,0.779
		c0.037,0.261,0.113,0.498,0.229,0.712c0.021,0.057,0.094,0.122,0.212,0.196c0.117,0.076,0.25,0.151,0.393,0.224
		c0.145,0.074,0.295,0.133,0.449,0.178c0.155,0.044,0.277,0.065,0.376,0.06c1.19-0.157,2.32-0.402,3.396-0.738
		c1.07-0.336,1.998-0.649,2.777-0.936l-0.087-0.282c-0.396,0.154-0.81,0.293-1.235,0.42c-0.431,0.127-0.855,0.232-1.278,0.316
		c-0.423,0.083-0.816,0.145-1.187,0.182c-0.365,0.038-0.687,0.044-0.955,0.02c-0.252-0.225-0.412-0.481-0.485-0.77
		c-0.07-0.287-0.063-0.563,0.03-0.824c0.199-0.564,0.653-1.158,1.36-1.78c0.706-0.623,1.539-1.307,2.499-2.053
		c1.688-1.288,3.389-2.572,5.1-3.852c1.709-1.281,3.457-2.542,5.242-3.788c1.646-1.192,3.026-2.097,4.144-2.716
		c1.114-0.62,2.09-1.027,2.924-1.223c0.833-0.195,1.582-0.222,2.246-0.084c0.664,0.138,1.351,0.36,2.056,0.668
		c1.436,0.625,2.756,1.299,3.969,2.025c1.213,0.727,2.289,1.294,3.23,1.705c0.177,0.078,0.415,0.065,0.717-0.036
		c0.303-0.102,0.577-0.25,0.827-0.443c0.248-0.194,0.425-0.397,0.528-0.606C125.999,4.763,125.941,4.586,125.725,4.445z"/>
	<path fill="#FF0000" d="M93.189,127.148c-0.521,1.11-0.817,2.027-0.896,2.754c-0.078,0.724,0.033,1.298,0.335,1.721
		c0.302,0.425,0.749,0.629,1.349,0.613c0.602-0.018,1.229-0.182,1.883-0.495c0.578-0.277,1.139-0.661,1.671-1.154
		s1.008-1.028,1.418-1.604c0.353-0.5,0.694-1.064,1.03-1.698c0.334-0.638,0.629-1.29,0.883-1.97c0.257-0.679,0.47-1.365,0.643-2.063
		c0.174-0.697,0.279-1.354,0.314-1.962c0.104-1.114,0.111-2.071,0.021-2.867c-0.09-0.798-0.223-1.479-0.4-2.045
		c-0.181-0.563-0.393-1.026-0.643-1.396c-0.248-0.363-0.479-0.676-0.695-0.926c-0.273-0.271-0.582-0.49-0.927-0.658
		c-0.342-0.166-0.692-0.293-1.057-0.379s-0.724-0.115-1.077-0.088c-0.354,0.028-0.68,0.111-0.967,0.252
		c-0.695,0.332-1.301,0.793-1.813,1.381c-0.513,0.59-0.953,1.141-1.324,1.647c-0.565,0.793-1.104,1.694-1.611,2.708
		c-0.51,1.014-0.891,2.02-1.146,3.016l0.332,0.021c0.09-0.397,0.229-0.83,0.406-1.296c0.18-0.467,0.371-0.911,0.579-1.346
		c0.207-0.432,0.415-0.822,0.621-1.186c0.207-0.357,0.388-0.623,0.543-0.793c0.42-0.509,0.926-0.986,1.517-1.438
		c0.59-0.448,1.151-0.717,1.678-0.807c0.437-0.089,0.869-0.05,1.311,0.118c0.438,0.169,0.869,0.495,1.292,0.979
		c0.228,0.41,0.438,0.854,0.646,1.324c-1.479,2.15-2.703,4.019-3.678,5.596C94.455,124.689,93.71,126.035,93.189,127.148z
		 M99.212,117.816c0.341,0.996,0.542,2.063,0.606,3.205c0.063,1.143,0.039,2.242-0.076,3.304c-0.117,1.063-0.297,2.028-0.538,2.903
		c-0.243,0.873-0.509,1.557-0.792,2.047c-0.359,0.339-0.799,0.572-1.318,0.703c-0.519,0.131-1.02,0.142-1.503,0.026
		c-0.481-0.11-0.899-0.323-1.255-0.641s-0.552-0.734-0.593-1.263c-0.052-0.397,0.014-0.883,0.192-1.438
		c0.183-0.562,0.489-1.231,0.931-2.024c0.438-0.789,1.017-1.74,1.735-2.854C97.324,120.67,98.193,119.348,99.212,117.816z"/>
	<path fill="#FF0000" d="M135.843,20.158c0.319-0.015,0.624-0.08,0.918-0.198c0.294-0.119,0.521-0.265,0.679-0.438
		c0.158-0.174,0.151-0.358-0.019-0.555c-0.255-0.293-0.649-0.675-1.18-1.14c-0.531-0.465-1.06-0.916-1.586-1.353
		c-1.566-1.292-3.235-2.27-5.009-2.932c-1.772-0.662-3.524-1.096-5.256-1.309c-1.73-0.211-3.36-0.233-4.893-0.07
		c-1.527,0.164-2.823,0.432-3.884,0.801c-0.459,0.149-1.175,0.404-2.146,0.767c-0.97,0.362-2.08,0.782-3.328,1.26
		c-1.248,0.478-2.563,0.986-3.938,1.522c-1.381,0.537-2.699,1.041-3.956,1.513c-1.257,0.472-2.387,0.897-3.385,1.278
		c-0.998,0.379-1.741,0.646-2.229,0.796c-0.418,0.235-0.651,0.457-0.7,0.667c-0.051,0.209-0.007,0.405,0.135,0.588
		c0.141,0.185,0.322,0.349,0.549,0.495c0.228,0.146,0.404,0.272,0.539,0.383l2.275-0.778c-0.052,0.928,0.018,1.758,0.196,2.491
		c0.185,0.731,0.538,1.317,1.063,1.751c0.513,0.423,1.178,0.777,1.992,1.065c0.818,0.287,1.793,0.539,2.922,0.752
		c0.648,0.091,1.343,0.164,2.074,0.216c0.736,0.054,1.497,0.06,2.283,0.016c0.788-0.042,1.581-0.134,2.383-0.275
		c0.801-0.143,1.598-0.372,2.389-0.686c0.44-0.162,0.914-0.381,1.425-0.655c0.508-0.274,0.985-0.582,1.438-0.928
		c0.457-0.345,0.875-0.712,1.256-1.104c0.383-0.391,0.674-0.808,0.875-1.25c0.23-0.475,0.371-1.017,0.42-1.628
		c0.052-0.609-0.063-1.068-0.334-1.376c-0.194-0.164-0.506-0.293-0.928-0.391c-0.42-0.097-0.887-0.172-1.4-0.222
		c-0.514-0.052-1.043-0.086-1.584-0.104s-1.037-0.021-1.493-0.01c-1.321,0.016-2.911,0.062-4.771,0.134
		c-1.854,0.073-3.759,0.191-5.705,0.357c2.834-1.095,5.381-2.079,7.645-2.955c2.262-0.876,4.193-1.591,5.801-2.149
		c1.913-0.691,3.496-1.177,4.748-1.459c1.25-0.282,2.307-0.404,3.161-0.361c0.854,0.042,1.582,0.222,2.183,0.537
		c0.602,0.316,1.196,0.718,1.79,1.208c1.203,0.994,2.286,2.008,3.25,3.039c0.966,1.031,1.843,1.873,2.634,2.527
		C135.291,20.119,135.523,20.173,135.843,20.158z M104.432,20.019c1.053-0.128,2.149-0.233,3.291-0.316
		c1.143-0.083,2.286-0.147,3.438-0.193c1.153-0.045,2.222-0.076,3.21-0.092c0.806,0.001,1.477,0.057,2.012,0.167
		c0.535,0.109,0.895,0.238,1.074,0.389c0.113,0.232,0.177,0.464,0.191,0.697c0.014,0.233-0.099,0.573-0.328,1.019
		c-0.256,0.507-0.813,1.156-1.665,1.948c-0.854,0.79-2.024,1.542-3.511,2.254c-0.729,0.37-1.396,0.647-2.013,0.833
		c-0.612,0.185-1.179,0.321-1.694,0.406c-0.52,0.086-1.006,0.131-1.473,0.136c-0.464,0.005-0.906,0.013-1.333,0.021
		c-0.543-0.117-1.004-0.282-1.38-0.497c-0.378-0.215-0.729-0.458-1.063-0.731c-0.627-0.518-1.088-1.21-1.381-2.076
		c-0.293-0.866-0.332-2.027-0.119-3.485C102.465,20.306,103.378,20.145,104.432,20.019z"/>
	<path fill="#FF0000" d="M56.547,118.275c-0.026-0.057-0.102-0.114-0.227-0.182c-0.125-0.063-0.261-0.128-0.41-0.188
		c-0.149-0.063-0.302-0.109-0.46-0.141c-0.159-0.031-0.287-0.041-0.381-0.026c-1.174,0.254-2.28,0.595-3.318,1.02
		c-1.04,0.427-1.937,0.813-2.69,1.166l0.11,0.272c0.381-0.188,0.78-0.36,1.197-0.522c0.418-0.161,0.833-0.303,1.247-0.421
		c0.415-0.119,0.803-0.213,1.166-0.279c0.362-0.066,0.679-0.104,0.95-0.103c0.269,0.205,0.453,0.444,0.548,0.728
		c0.097,0.28,0.11,0.557,0.041,0.823c-0.152,0.579-0.555,1.208-1.205,1.89c-0.652,0.681-1.424,1.433-2.316,2.254
		c-1.575,1.427-3.157,2.849-4.751,4.268c-1.594,1.419-3.229,2.823-4.904,4.215c-1.539,1.323-2.836,2.344-3.894,3.053
		c-1.059,0.713-1.995,1.197-2.809,1.463c-0.814,0.267-1.558,0.355-2.231,0.273c-0.673-0.081-1.375-0.247-2.105-0.493
		c-1.479-0.503-2.854-1.063-4.122-1.685c-1.27-0.621-2.391-1.098-3.363-1.43c-0.184-0.063-0.42-0.027-0.712,0.1
		c-0.292,0.126-0.555,0.295-0.785,0.511c-0.232,0.216-0.391,0.431-0.477,0.648c-0.086,0.217-0.015,0.39,0.214,0.511
		c0.346,0.188,0.848,0.4,1.51,0.646s1.317,0.479,1.965,0.698c1.927,0.652,3.829,0.979,5.708,0.974s3.639-0.209,5.28-0.607
		c1.643-0.398,3.141-0.943,4.495-1.633c1.356-0.688,2.463-1.396,3.321-2.118c0.341-0.269,0.864-0.688,1.573-1.271
		c0.707-0.582,1.51-1.256,2.405-2.022c0.896-0.767,1.837-1.583,2.823-2.454c0.988-0.869,1.943-1.722,2.862-2.559
		c0.422-0.375,0.852-0.771,1.288-1.187c0.437-0.413,0.834-0.819,1.195-1.217c0.362-0.396,0.676-0.783,0.942-1.166
		c0.268-0.383,0.442-0.729,0.525-1.037c0.055-0.161,0.099-0.354,0.131-0.581c0.031-0.226,0.047-0.469,0.044-0.729
		c-0.002-0.262-0.031-0.52-0.091-0.773C56.779,118.708,56.682,118.479,56.547,118.275z"/>
	<path fill="#FF0000" d="M118.247,92.975c0.592-0.187,1.205-0.229,1.836-0.134c0.631,0.097,1.218,0.337,1.761,0.72l0.149-0.061
		c0.137-0.465,0.159-0.907,0.065-1.328c-0.096-0.42-0.258-0.788-0.488-1.104c-0.23-0.316-0.521-0.574-0.861-0.771
		c-0.344-0.197-0.678-0.295-1.006-0.295c-0.624-0.007-1.219,0.191-1.782,0.598c-0.563,0.407-1.017,0.905-1.356,1.498
		c-0.445,0.729-0.765,1.436-0.948,2.12c-0.187,0.688-0.273,1.433-0.271,2.236c0.016,1.483,0.611,2.624,1.793,3.42
		c1.18,0.797,2.768,1.313,4.754,1.553c1.15,0.13,2.121,0.267,2.912,0.41c0.789,0.146,1.438,0.332,1.932,0.563
		c0.5,0.229,0.859,0.504,1.076,0.824c0.22,0.317,0.319,0.715,0.309,1.184c-0.563,1.854-2.305,2.654-5.214,2.402l-0.066,0.106
		c0.031,0.521,0.195,1.021,0.488,1.5c0.295,0.479,0.696,0.751,1.213,0.813c0.563,0.066,1.067-0.097,1.526-0.489
		c0.457-0.396,0.884-0.912,1.273-1.55c0.376-0.567,0.646-1.159,0.811-1.771c0.164-0.609,0.285-1.207,0.365-1.784
		c0.16-1.276-0.23-2.3-1.181-3.063c-0.946-0.767-2.577-1.331-4.892-1.694c-1.09-0.188-2.067-0.354-2.938-0.498
		c-0.863-0.141-1.591-0.32-2.173-0.54c-0.583-0.217-1.021-0.487-1.306-0.813c-0.289-0.325-0.4-0.745-0.34-1.258
		C115.943,94.346,116.794,93.414,118.247,92.975z"/>
	<path fill="#FF0000" d="M120.422,44.652c0.368-0.175,0.887-0.306,1.561-0.392c0.676-0.086,1.438-0.141,2.287-0.167
		c0.854-0.026,1.746-0.033,2.683-0.018c0.937,0.013,1.851,0.045,2.739,0.094c0.896,0.048,1.729,0.101,2.502,0.152
		c0.772,0.053,1.41,0.115,1.91,0.182c0.479-0.065,0.771-0.195,0.888-0.389c0.108-0.195,0.118-0.412,0.022-0.652
		c-0.094-0.24-0.255-0.487-0.479-0.741c-0.225-0.253-0.428-0.479-0.605-0.671c-0.279-0.02-0.611-0.026-1-0.021
		c-0.39,0.003-0.818,0.008-1.295,0.01c-0.473,0.003-0.968-0.008-1.479-0.033c-0.518-0.024-1.018-0.06-1.51-0.11
		c-1.614-0.189-3.191-0.442-4.732-0.759c-1.541-0.317-2.928-0.663-4.156-1.038c-1.229-0.376-2.259-0.759-3.083-1.148
		c-0.821-0.391-1.333-0.762-1.524-1.119c-0.07-0.301-0.082-0.636-0.037-0.999c0.045-0.365,0.246-0.619,0.604-0.765
		c0.58-0.097,1.359-0.126,2.334-0.084c0.975,0.041,2.146,0.065,3.518,0.073c0.565,0.008,1.147,0.014,1.746,0.016
		c0.603,0.001,1.17-0.005,1.711-0.021c0.543-0.015,1.021-0.05,1.439-0.109c0.421-0.058,0.727-0.138,0.912-0.24
		c0.216-0.141,0.482-0.365,0.803-0.673c0.319-0.307,0.586-0.634,0.799-0.979c0.211-0.347,0.326-0.694,0.345-1.043
		c0.017-0.349-0.161-0.641-0.534-0.875c-0.479-0.297-0.989-0.579-1.526-0.847c-0.534-0.266-1.069-0.509-1.604-0.728
		c-0.534-0.219-1.055-0.418-1.553-0.595c-0.5-0.179-0.945-0.331-1.332-0.46l-0.094,0.305c0.9,0.216,1.729,0.524,2.486,0.926
		c0.758,0.402,1.291,0.774,1.602,1.116c0.068,0.351,0.053,0.65-0.055,0.903c-0.104,0.251-0.27,0.448-0.48,0.589
		c-0.506,0.324-1.232,0.501-2.182,0.53c-0.945,0.029-2.007,0.045-3.176,0.049c-0.854,0.003-1.669-0.017-2.445-0.055
		c-0.775-0.038-1.482-0.068-2.115-0.088c-0.636-0.02-1.187-0.013-1.65,0.024c-0.469,0.036-0.807,0.133-1.012,0.293
		c-0.278,0.248-0.479,0.532-0.596,0.854c-0.117,0.318-0.189,0.631-0.219,0.938c-0.025,0.306-0.021,0.587,0.021,0.843
		c0.045,0.256,0.1,0.463,0.162,0.624c0.351,0.417,0.982,0.848,1.898,1.297c0.918,0.449,2.003,0.879,3.253,1.292
		c1.252,0.412,2.614,0.795,4.089,1.148c1.477,0.352,2.949,0.648,4.426,0.892c-0.674-0.024-1.404-0.045-2.194-0.065
		c-0.791-0.019-1.55-0.019-2.271-0.003c-0.724,0.016-1.382,0.063-1.972,0.143c-0.592,0.078-1.02,0.212-1.28,0.404
		c-0.139,0.099-0.296,0.227-0.467,0.381c-0.172,0.154-0.339,0.329-0.499,0.525c-0.161,0.196-0.305,0.413-0.43,0.652
		c-0.125,0.238-0.209,0.478-0.248,0.717c-0.016,0.058,0.005,0.162,0.063,0.313c0.059,0.151,0.131,0.313,0.213,0.486
		c0.084,0.173,0.178,0.334,0.284,0.483c0.104,0.149,0.197,0.25,0.274,0.305c1.039,0.602,2.084,1.096,3.139,1.482
		c1.055,0.386,1.979,0.704,2.773,0.952l0.104-0.275c-0.406-0.119-0.818-0.26-1.236-0.42c-0.418-0.163-0.817-0.339-1.205-0.529
		c-0.387-0.191-0.732-0.384-1.051-0.579c-0.313-0.193-0.565-0.381-0.767-0.566c-0.062-0.331-0.056-0.675,0.021-1.03
		C120.004,45,120.167,44.767,120.422,44.652z"/>
	<path fill="#FF0000" d="M109.717,117.861c-0.165,1.217-0.177,2.182-0.035,2.895c0.144,0.714,0.418,1.229,0.832,1.546
		c0.413,0.316,0.903,0.378,1.471,0.188c0.568-0.191,1.117-0.534,1.65-1.028c0.471-0.437,0.889-0.967,1.251-1.596
		c0.363-0.63,0.655-1.278,0.875-1.947c0.188-0.583,0.349-1.228,0.479-1.933c0.13-0.701,0.216-1.416,0.258-2.139
		c0.041-0.725,0.039-1.442-0.003-2.16c-0.044-0.719-0.138-1.375-0.282-1.968c-0.234-1.095-0.513-2.01-0.835-2.745
		c-0.323-0.732-0.653-1.347-0.992-1.832c-0.339-0.484-0.682-0.869-1.028-1.146c-0.346-0.274-0.657-0.502-0.938-0.681
		c-0.344-0.178-0.702-0.295-1.08-0.354c-0.377-0.059-0.751-0.072-1.122-0.051c-0.373,0.021-0.724,0.104-1.055,0.232
		c-0.331,0.135-0.613,0.31-0.851,0.523c-0.563,0.523-1.004,1.143-1.314,1.854c-0.313,0.715-0.57,1.369-0.771,1.967
		c-0.309,0.924-0.554,1.943-0.733,3.062c-0.185,1.117-0.248,2.189-0.193,3.22l0.321-0.08c-0.031-0.407-0.031-0.86,0.002-1.356
		s0.084-0.981,0.152-1.453c0.068-0.474,0.149-0.911,0.24-1.315c0.092-0.4,0.187-0.709,0.28-0.916
		c0.25-0.608,0.589-1.217,1.021-1.818c0.432-0.604,0.887-1.021,1.363-1.266c0.387-0.213,0.813-0.304,1.282-0.271
		c0.47,0.033,0.978,0.216,1.524,0.551c0.337,0.329,0.673,0.688,1.009,1.077c-0.771,2.491-1.386,4.633-1.845,6.43
		C110.191,115.143,109.881,116.646,109.717,117.861z M112.688,107.176c0.623,0.852,1.133,1.813,1.535,2.883
		c0.4,1.068,0.703,2.127,0.909,3.176c0.204,1.049,0.323,2.024,0.351,2.932c0.029,0.904-0.02,1.637-0.146,2.188
		c-0.241,0.432-0.592,0.782-1.049,1.063c-0.457,0.277-0.933,0.438-1.427,0.471c-0.493,0.035-0.955-0.046-1.389-0.24
		c-0.436-0.194-0.746-0.537-0.94-1.026c-0.169-0.368-0.251-0.847-0.245-1.435c0.005-0.586,0.102-1.322,0.281-2.207
		c0.185-0.886,0.453-1.965,0.811-3.24C111.732,110.455,112.171,108.938,112.688,107.176z"/>
</g>
</svg>
